<svg width="122" height="81" viewBox="0 0 122 81" fill="none" xmlns="http://www.w3.org/2000/svg">
<path d="M85.9767 24.2864L85.9414 34.5086H78.4836V0H86.0119H86.8561H92.2737C96.7062 0 98.9577 1.19846 98.9929 3.59538V20.4443C98.9929 22.8412 96.8469 24.0044 92.5199 24.0044H86.0119V24.2864H85.9767ZM91.4997 3.98311H85.9063V19.986H91.4997V3.98311Z" fill="white"/>
<path d="M6.29701 34.5433L6.26183 44.7654H0V10.2568H6.29701H7.0006H11.5387C15.2676 10.2568 17.1321 11.4553 17.1673 13.8522V30.7011C17.1673 33.0981 15.3732 34.2613 11.7497 34.2613H6.29701V34.5433ZM10.9406 14.2752H6.26183V30.2782H10.9406V14.2752Z" fill="white"/>
<path d="M36.4467 34.2613H24.5562C21.0735 34.2613 19.3145 33.0628 19.3145 30.6658L19.3497 23.6514C19.3497 21.2897 21.1438 20.0912 24.7672 20.056H30.2199V14.2752H25.5412L25.506 17.4475H19.3849V13.8522C19.3849 11.4905 21.2143 10.3273 24.8728 10.3273L30.9939 10.2568C34.6174 10.2568 36.4467 11.4553 36.4467 13.817V34.2613ZM25.5763 30.2429H30.2904L30.2552 24.0743H25.5763V30.2429Z" fill="white"/>
<path d="M50.1296 34.2613H44.6416C41.0182 34.2613 39.2241 33.0628 39.2241 30.7011V13.8522C39.2594 11.4553 41.1238 10.2568 44.8527 10.2568H49.3908H50.1647H56.3914V41.2054C56.3914 43.6022 54.5621 44.8007 50.9387 44.8007H44.7121C41.0885 44.8007 39.2594 43.6022 39.2594 41.2054V37.6452H45.486V40.8176H50.1647V34.5433L50.1296 34.2613ZM45.4507 30.2429H50.1296V14.2752H45.4507V30.2429Z" fill="white"/>
<path d="M75.6693 30.6658C75.6342 33.0628 73.7696 34.226 70.0406 34.226H63.9899C60.3313 34.226 58.502 33.0275 58.502 30.6658V13.817C58.502 11.42 60.3313 10.2568 63.9899 10.2568H70.2165C73.8399 10.2568 75.6342 11.4553 75.6342 13.817V30.6658H75.6693ZM69.4777 14.2752H64.7638V30.2782H69.4427L69.4777 14.2752Z" fill="white"/>
<path d="M121.965 3.77009C121.965 1.37317 119.819 0.209961 115.492 0.209961H108.034C103.672 0.209961 101.491 1.40842 101.491 3.77009V34.5776H108.948V24.0381H114.577V32.8504C114.577 55.4096 96.3896 73.6333 73.8751 73.6333C60.8238 73.6333 49.1795 67.4647 41.7216 57.9122L45.4506 55.0571L30.4644 44.9406L31.1328 66.2662L35.9171 62.4593C44.712 73.7389 58.4668 81.0002 73.8751 81.0002C100.47 81.0002 122 59.3927 122 32.7799L121.965 3.77009ZM114.542 20.0198H108.913V4.15784H114.542V20.0198Z" fill="white"/>
</svg>
