<svg width="32" height="32" viewBox="0 0 32 32" fill="none" xmlns="http://www.w3.org/2000/svg">
<path d="M27.107 5.63708C25.0356 4.66791 22.8208 3.96356 20.5052 3.5625C20.2208 4.07665 19.8886 4.76819 19.6595 5.3183C17.198 4.94812 14.7591 4.94812 12.3429 5.3183C12.1139 4.76819 11.7741 4.07665 11.4871 3.5625C9.16908 3.96356 6.95167 4.6705 4.88026 5.64221C0.70219 11.9558 -0.430415 18.1126 0.135889 24.182C2.907 26.2514 5.59255 27.5085 8.23277 28.3311C8.88465 27.4339 9.46605 26.4802 9.9669 25.475C9.013 25.1126 8.09937 24.6653 7.2361 24.146C7.46512 23.9763 7.68914 23.7989 7.90557 23.6164C13.1709 26.0791 18.8919 26.0791 24.0943 23.6164C24.3133 23.7989 24.5373 23.9763 24.7638 24.146C23.898 24.6678 22.9818 25.1151 22.0279 25.4776C22.5288 26.4802 23.1077 27.4365 23.7621 28.3336C26.4048 27.511 29.0929 26.254 31.864 24.182C32.5285 17.146 30.7289 11.0458 27.107 5.63708ZM10.6842 20.4494C9.10363 20.4494 7.8074 18.9738 7.8074 17.1769C7.8074 15.38 9.07595 13.9018 10.6842 13.9018C12.2926 13.9018 13.5887 15.3774 13.5611 17.1769C13.5636 18.9738 12.2926 20.4494 10.6842 20.4494ZM21.3157 20.4494C19.735 20.4494 18.4388 18.9738 18.4388 17.1769C18.4388 15.38 19.7073 13.9018 21.3157 13.9018C22.9239 13.9018 24.2202 15.3774 24.1925 17.1769C24.1925 18.9738 22.9239 20.4494 21.3157 20.4494Z" fill="#5865F2"/>
</svg>
