<svg width="24" height="25" viewBox="0 0 24 25" fill="none" xmlns="http://www.w3.org/2000/svg">
<path d="M8.38028 9.23616C9.07627 10.6858 10.0251 12.0444 11.2266 13.246C12.4282 14.4476 13.7869 15.3964 15.2365 16.0924C15.3612 16.1522 15.4235 16.1822 15.5024 16.2052C15.7828 16.2869 16.127 16.2282 16.3644 16.0582C16.4313 16.0103 16.4884 15.9532 16.6027 15.8389C16.9523 15.4893 17.1271 15.3145 17.3029 15.2002C17.9658 14.7692 18.8204 14.7692 19.4833 15.2002C19.6591 15.3145 19.8339 15.4893 20.1835 15.8389L20.3783 16.0337C20.9098 16.5652 21.1755 16.8309 21.3198 17.1163C21.6069 17.6838 21.6069 18.3541 21.3198 18.9217C21.1755 19.207 20.9098 19.4728 20.3783 20.0042L20.2207 20.1618C19.6911 20.6915 19.4263 20.9563 19.0662 21.1585C18.6667 21.383 18.0462 21.5443 17.588 21.5429C17.1751 21.5417 16.8928 21.4616 16.3284 21.3014C13.295 20.4404 10.4326 18.816 8.04466 16.428C5.65668 14.04 4.03221 11.1776 3.17124 8.14425C3.01103 7.5798 2.93092 7.29758 2.9297 6.88463C2.92833 6.42641 3.08969 5.80592 3.31411 5.40641C3.51636 5.04638 3.78117 4.78157 4.3108 4.25195L4.46843 4.09431C4.99987 3.56287 5.2656 3.29715 5.55098 3.1528C6.11854 2.86573 6.7888 2.86573 7.35636 3.1528C7.64174 3.29715 7.90747 3.56287 8.43891 4.09431L8.63378 4.28918C8.98338 4.63879 9.15819 4.81359 9.27247 4.98937C9.70347 5.65226 9.70347 6.50684 9.27247 7.16973C9.15819 7.34551 8.98338 7.52031 8.63378 7.86992C8.51947 7.98423 8.46231 8.04138 8.41447 8.1082C8.24446 8.34563 8.18576 8.68989 8.26748 8.97024C8.29048 9.04913 8.32041 9.11147 8.38028 9.23616Z" stroke="white" stroke-width="2" stroke-linecap="round" stroke-linejoin="round"/>
</svg>
