<svg width="20" height="21" viewBox="0 0 20 21" fill="none" xmlns="http://www.w3.org/2000/svg">
<path d="M6 15.9997H14M9.0177 1.76375L2.23539 7.03888C1.78202 7.3915 1.55534 7.56781 1.39203 7.78861C1.24737 7.9842 1.1396 8.20454 1.07403 8.43881C1 8.70327 1 8.99045 1 9.56481V16.7997C1 17.9198 1 18.4799 1.21799 18.9077C1.40973 19.284 1.71569 19.59 2.09202 19.7818C2.51984 19.9997 3.07989 19.9997 4.2 19.9997H15.8C16.9201 19.9997 17.4802 19.9997 17.908 19.7818C18.2843 19.59 18.5903 19.284 18.782 18.9077C19 18.4799 19 17.9198 19 16.7997V9.56481C19 8.99045 19 8.70327 18.926 8.43881C18.8604 8.20454 18.7526 7.9842 18.608 7.78861C18.4447 7.56781 18.218 7.3915 17.7646 7.03888L10.9823 1.76376C10.631 1.4905 10.4553 1.35388 10.2613 1.30136C10.0902 1.25502 9.9098 1.25502 9.73865 1.30136C9.54468 1.35388 9.36902 1.4905 9.0177 1.76375Z" stroke="white" stroke-width="2" stroke-linecap="round" stroke-linejoin="round"/>
</svg>
