<svg width="18" height="18" viewBox="0 0 18 18" fill="none" xmlns="http://www.w3.org/2000/svg">
<path d="M4.02844 11.3853C4.02844 12.4009 3.20758 13.2218 2.19195 13.2218C1.17632 13.2218 0.355469 12.4009 0.355469 11.3853C0.355469 10.3697 1.17632 9.54883 2.19195 9.54883H4.02844V11.3853ZM4.94668 11.3853C4.94668 10.3697 5.76753 9.54883 6.78316 9.54883C7.7988 9.54883 8.61965 10.3697 8.61965 11.3853V15.9765C8.61965 16.9922 7.7988 17.813 6.78316 17.813C5.76753 17.813 4.94668 16.9922 4.94668 15.9765V11.3853Z" fill="white"/>
<path d="M6.78145 4.01184C5.76582 4.01184 4.94497 3.19098 4.94497 2.17535C4.94497 1.15972 5.76582 0.338867 6.78145 0.338867C7.79708 0.338867 8.61794 1.15972 8.61794 2.17535V4.01184H6.78145ZM6.78145 4.94399C7.79708 4.94399 8.61794 5.76484 8.61794 6.78048C8.61794 7.79611 7.79708 8.61696 6.78145 8.61696H2.17633C1.1607 8.61696 0.339844 7.79611 0.339844 6.78048C0.339844 5.76484 1.1607 4.94399 2.17633 4.94399H6.78145Z" fill="white"/>
<path d="M14.142 6.78048C14.142 5.76484 14.9628 4.94399 15.9785 4.94399C16.9941 4.94399 17.815 5.76484 17.815 6.78048C17.815 7.79611 16.9941 8.61696 15.9785 8.61696H14.142V6.78048ZM13.2238 6.78048C13.2238 7.79611 12.4029 8.61696 11.3873 8.61696C10.3716 8.61696 9.55078 7.79611 9.55078 6.78048V2.17535C9.55078 1.15972 10.3716 0.338867 11.3873 0.338867C12.4029 0.338867 13.2238 1.15972 13.2238 2.17535V6.78048V6.78048Z" fill="white"/>
<path d="M11.3873 14.14C12.4029 14.14 13.2238 14.9609 13.2238 15.9765C13.2238 16.9922 12.4029 17.813 11.3873 17.813C10.3716 17.813 9.55078 16.9922 9.55078 15.9765V14.14H11.3873ZM11.3873 13.2218C10.3716 13.2218 9.55078 12.4009 9.55078 11.3853C9.55078 10.3697 10.3716 9.54883 11.3873 9.54883H15.9924C17.008 9.54883 17.8289 10.3697 17.8289 11.3853C17.8289 12.4009 17.008 13.2218 15.9924 13.2218H11.3873Z" fill="white"/>
</svg>
