<svg width="24" height="25" viewBox="0 0 24 25" fill="none" xmlns="http://www.w3.org/2000/svg">
<path d="M13 11.3828H17.8C18.9201 11.3828 19.4802 11.3828 19.908 11.6008C20.2843 11.7925 20.5903 12.0985 20.782 12.4748C21 12.9027 21 13.4627 21 14.5828V21.3828M13 21.3828V6.58281C13 5.46271 13 4.90266 12.782 4.47483C12.5903 4.09851 12.2843 3.79255 11.908 3.6008C11.4802 3.38281 10.9201 3.38281 9.8 3.38281H6.2C5.0799 3.38281 4.51984 3.38281 4.09202 3.6008C3.71569 3.79255 3.40973 4.09851 3.21799 4.47483C3 4.90266 3 5.46271 3 6.58281V21.3828M22 21.3828H2M6.5 7.38281H9.5M6.5 11.3828H9.5M6.5 15.3828H9.5" stroke="white" stroke-width="2" stroke-linecap="round" stroke-linejoin="round"/>
</svg>
