<svg width="24" height="25" viewBox="0 0 24 25" fill="none" xmlns="http://www.w3.org/2000/svg">
<path d="M21.5 18.3828L14.8571 12.3828M9.14286 12.3828L2.50003 18.3828M2 7.38281L10.1649 13.0983C10.8261 13.5611 11.1567 13.7925 11.5163 13.8821C11.8339 13.9613 12.1661 13.9613 12.4837 13.8821C12.8433 13.7925 13.1739 13.5611 13.8351 13.0983L22 7.38281M6.8 20.3828H17.2C18.8802 20.3828 19.7202 20.3828 20.362 20.0558C20.9265 19.7682 21.3854 19.3093 21.673 18.7448C22 18.103 22 17.263 22 15.5828V9.18281C22 7.50266 22 6.66258 21.673 6.02084C21.3854 5.45635 20.9265 4.99741 20.362 4.70979C19.7202 4.38281 18.8802 4.38281 17.2 4.38281H6.8C5.11984 4.38281 4.27976 4.38281 3.63803 4.70979C3.07354 4.99741 2.6146 5.45635 2.32698 6.02084C2 6.66258 2 7.50266 2 9.18281V15.5828C2 17.263 2 18.103 2.32698 18.7448C2.6146 19.3093 3.07354 19.7682 3.63803 20.0558C4.27976 20.3828 5.11984 20.3828 6.8 20.3828Z" stroke="white" stroke-width="2" stroke-linecap="round" stroke-linejoin="round"/>
</svg>
