<svg width="130" height="59" viewBox="0 0 130 59" fill="none" xmlns="http://www.w3.org/2000/svg">
<circle cx="39" cy="31" r="28" fill="white"/>
<circle opacity="0.2" cx="18" cy="18" r="18" fill="white"/>
<path d="M75.0468 24.551H80.1334V25.6795H76.2735V29.5558H79.8227V30.6844H76.2735V34.8715H80.2152V36H75.0468V24.551ZM83.8087 28.738L83.1054 26.9389H83.0564L83.2363 28.738V36H82.0587V24.371H82.7947L87.0308 31.7966L87.7014 33.5139H87.7668L87.5869 31.7966V24.551H88.7645V36.1799H88.0122L83.8087 28.738ZM90.8595 24.551H95.9461V25.6795H92.0862V29.5558H95.6354V30.6844H92.0862V34.8715H96.0279V36H90.8595V24.551ZM97.8714 24.6655C98.2312 24.5782 98.6237 24.5182 99.049 24.4855C99.4851 24.4419 99.8831 24.4201 100.243 24.4201C100.668 24.4201 101.072 24.4746 101.453 24.5837C101.835 24.6818 102.167 24.8563 102.451 25.1071C102.734 25.3469 102.958 25.6686 103.122 26.072C103.296 26.4646 103.383 26.9607 103.383 27.5604C103.383 28.4654 103.192 29.1905 102.811 29.7357C102.44 30.2809 101.944 30.6462 101.322 30.8316L101.944 31.4367L104.201 36H102.778L100.325 31.0115L99.0981 30.7662V36H97.8714V24.6655ZM99.0981 29.9484H100.079C100.701 29.9484 101.192 29.7575 101.551 29.3759C101.911 28.9943 102.091 28.4109 102.091 27.6258C102.091 27.0261 101.939 26.53 101.633 26.1375C101.339 25.7449 100.897 25.5487 100.308 25.5487C100.09 25.5487 99.8613 25.5596 99.6214 25.5814C99.3925 25.5923 99.218 25.6141 99.0981 25.6468V29.9484ZM105.648 34.4789C105.855 34.6207 106.144 34.757 106.515 34.8878C106.897 35.0077 107.327 35.0677 107.807 35.0677C108.418 35.0677 108.914 34.9205 109.295 34.6261C109.677 34.3208 109.868 33.8465 109.868 33.2032C109.868 32.7779 109.759 32.4072 109.541 32.091C109.323 31.7748 109.05 31.4858 108.723 31.2241C108.396 30.9515 108.041 30.6898 107.66 30.439C107.289 30.1773 106.94 29.8938 106.613 29.5885C106.286 29.2723 106.013 28.9125 105.795 28.5091C105.577 28.1056 105.468 27.6204 105.468 27.0534C105.468 26.1375 105.741 25.4614 106.286 25.0253C106.842 24.5782 107.562 24.3547 108.445 24.3547C108.99 24.3547 109.475 24.4038 109.901 24.5019C110.326 24.6 110.669 24.7254 110.931 24.8781L110.538 25.9576C110.342 25.8376 110.059 25.7286 109.688 25.6304C109.328 25.5323 108.908 25.4832 108.429 25.4832C107.84 25.4832 107.404 25.6304 107.12 25.9248C106.837 26.2083 106.695 26.5682 106.695 27.0043C106.695 27.386 106.804 27.724 107.022 28.0184C107.24 28.3128 107.513 28.5908 107.84 28.8525C108.167 29.1142 108.516 29.3814 108.886 29.654C109.268 29.9157 109.622 30.2101 109.95 30.5372C110.277 30.8643 110.549 31.235 110.767 31.6494C110.985 32.0637 111.095 32.5544 111.095 33.1214C111.095 34.0809 110.811 34.8333 110.244 35.3785C109.677 35.9237 108.876 36.1963 107.84 36.1963C107.185 36.1963 106.646 36.1363 106.22 36.0164C105.806 35.8964 105.474 35.7601 105.223 35.6075L105.648 34.4789ZM112.726 24.551H117.812V25.6795H113.952V29.5558H117.502V30.6844H113.952V34.8715H117.894V36H112.726V24.551ZM126.836 28.4763L126.983 26.7426H126.918L126.394 28.3619L124.088 33.334H123.679L121.259 28.3619L120.752 26.7426H120.686L120.915 28.4763V36H119.738V24.551H120.768L123.532 30.1773L123.941 31.5185H123.974L124.366 30.161L126.983 24.551H128.063V36H126.836V28.4763Z" fill="white"/>
</svg>
