<svg width="49" height="29" viewBox="0 0 49 29" fill="none" xmlns="http://www.w3.org/2000/svg">
<g clip-path="url(#clip0_759_6264)">
<path d="M14.1837 10.2156C14.1837 10.7944 14.2463 11.2637 14.3558 11.6079C14.4809 11.9521 14.6374 12.3275 14.8564 12.7343C14.9346 12.8594 14.9659 12.9846 14.9659 13.0941C14.9659 13.2505 14.872 13.407 14.6687 13.5634L13.6831 14.2204C13.5423 14.3143 13.4015 14.3612 13.2763 14.3612C13.1199 14.3612 12.9635 14.283 12.807 14.1422C12.588 13.9076 12.4003 13.6573 12.2438 13.407C12.0874 13.141 11.931 12.8438 11.7589 12.484C10.5386 13.9232 9.00551 14.6428 7.15952 14.6428C5.84542 14.6428 4.79726 14.2674 4.03071 13.5165C3.26415 12.7655 2.87305 11.7643 2.87305 10.5128C2.87305 9.18306 3.34237 8.10362 4.29666 7.29013C5.25094 6.47664 6.51811 6.06989 8.12945 6.06989C8.66135 6.06989 9.20889 6.11682 9.78772 6.19504C10.3665 6.27326 10.961 6.39842 11.5868 6.53921V5.3972C11.5868 4.20825 11.3365 3.37911 10.8515 2.89415C10.3509 2.40918 9.50612 2.17452 8.30153 2.17452C7.75399 2.17452 7.1908 2.2371 6.61197 2.3779C6.03314 2.51869 5.46996 2.69078 4.92242 2.90979C4.67211 3.0193 4.48438 3.08188 4.37488 3.11317C4.26537 3.14445 4.18715 3.1601 4.12457 3.1601C3.90555 3.1601 3.79605 3.00366 3.79605 2.67513V1.90857C3.79605 1.65827 3.82733 1.47054 3.90555 1.36103C3.98377 1.25152 4.12457 1.14202 4.34359 1.03251C4.89113 0.750914 5.54818 0.516254 6.31474 0.328525C7.0813 0.125152 7.89479 0.0312881 8.75521 0.0312881C10.6169 0.0312881 11.9779 0.453677 12.854 1.29846C13.7144 2.14323 14.1524 3.42605 14.1524 5.14689V10.2156H14.1837ZM7.83221 12.5935C8.34846 12.5935 8.88036 12.4996 9.44355 12.3119C10.0067 12.1241 10.5073 11.78 10.9297 11.3106C11.18 11.0134 11.3678 10.6849 11.4616 10.3094C11.5555 9.93397 11.6181 9.48029 11.6181 8.9484V8.29135C11.1644 8.18184 10.6794 8.08797 10.1788 8.0254C9.67821 7.96282 9.19324 7.93153 8.70828 7.93153C7.66013 7.93153 6.89357 8.13491 6.37731 8.55729C5.86106 8.97968 5.61076 9.57416 5.61076 10.3564C5.61076 11.0916 5.79848 11.6392 6.18959 12.0146C6.56504 12.4057 7.11258 12.5935 7.83221 12.5935ZM20.3944 14.283C20.1128 14.283 19.9251 14.2361 19.7999 14.1266C19.6748 14.0327 19.5652 13.8137 19.4714 13.5165L15.795 1.42361C15.7012 1.11073 15.6542 0.907355 15.6542 0.797846C15.6542 0.547542 15.7794 0.406745 16.0297 0.406745H17.5628C17.86 0.406745 18.0634 0.453677 18.1729 0.563186C18.2981 0.65705 18.3919 0.876067 18.4858 1.1733L21.114 11.5297L23.5545 1.1733C23.6327 0.860423 23.7266 0.65705 23.8517 0.563186C23.9769 0.469321 24.1959 0.406745 24.4775 0.406745H25.729C26.0262 0.406745 26.2296 0.453677 26.3548 0.563186C26.4799 0.65705 26.5894 0.876067 26.652 1.1733L29.1238 11.6548L31.8302 1.1733C31.924 0.860423 32.0336 0.65705 32.1431 0.563186C32.2682 0.469321 32.4716 0.406745 32.7532 0.406745H34.2081C34.4584 0.406745 34.5992 0.531898 34.5992 0.797846C34.5992 0.876067 34.5835 0.954287 34.5679 1.04815C34.5522 1.14202 34.521 1.26717 34.4584 1.43925L30.6882 13.5321C30.5943 13.845 30.4848 14.0484 30.3596 14.1422C30.2345 14.2361 30.0311 14.2987 29.7652 14.2987H28.4198C28.1225 14.2987 27.9192 14.2517 27.794 14.1422C27.6689 14.0327 27.5594 13.8293 27.4968 13.5165L25.072 3.42605L22.6628 13.5008C22.5846 13.8137 22.4907 14.0171 22.3655 14.1266C22.2404 14.2361 22.0214 14.283 21.7398 14.283H20.3944ZM40.497 14.7054C39.6835 14.7054 38.87 14.6115 38.0878 14.4238C37.3056 14.2361 36.6955 14.0327 36.2887 13.7981C36.0384 13.6573 35.8663 13.5008 35.8038 13.36C35.7412 13.2192 35.7099 13.0628 35.7099 12.922V12.1241C35.7099 11.7956 35.8351 11.6392 36.0697 11.6392C36.1636 11.6392 36.2575 11.6548 36.3513 11.6861C36.4452 11.7174 36.586 11.78 36.7424 11.8425C37.2743 12.0772 37.8531 12.2649 38.4633 12.3901C39.089 12.5152 39.6991 12.5778 40.3249 12.5778C41.3105 12.5778 42.077 12.4057 42.6089 12.0616C43.1408 11.7174 43.4224 11.2168 43.4224 10.5754C43.4224 10.1373 43.2816 9.77753 43 9.48029C42.7184 9.18306 42.1865 8.91711 41.42 8.6668L39.1516 7.96282C38.0096 7.60301 37.1648 7.07111 36.6485 6.36713C36.1323 5.67879 35.8663 4.91223 35.8663 4.09874C35.8663 3.44169 36.0071 2.86286 36.2887 2.36225C36.5703 1.86164 36.9458 1.42361 37.4151 1.07944C37.8844 0.719626 38.4163 0.453677 39.0421 0.265949C39.6679 0.0782202 40.3249 0 41.0132 0C41.3574 0 41.7172 0.015644 42.0614 0.0625762C42.4212 0.109508 42.7497 0.172085 43.0783 0.234661C43.3911 0.312881 43.6884 0.391101 43.97 0.484966C44.2516 0.57883 44.4706 0.672694 44.627 0.766558C44.846 0.891711 45.0025 1.01686 45.0963 1.15766C45.1902 1.28281 45.2371 1.4549 45.2371 1.67391V2.40918C45.2371 2.73771 45.112 2.90979 44.8773 2.90979C44.7522 2.90979 44.5488 2.84722 44.2828 2.72206C43.3911 2.31532 42.3899 2.11195 41.2792 2.11195C40.3875 2.11195 39.6835 2.25274 39.1985 2.54998C38.7136 2.84722 38.4633 3.30089 38.4633 3.9423C38.4633 4.38033 38.6197 4.75579 38.9326 5.05303C39.2455 5.35027 39.8243 5.6475 40.6534 5.91345L42.8749 6.61743C44.0013 6.97725 44.8147 7.47786 45.2997 8.11926C45.7847 8.76067 46.0193 9.49594 46.0193 10.3094C46.0193 10.9821 45.8785 11.5922 45.6126 12.1241C45.331 12.656 44.9555 13.1254 44.4706 13.5008C43.9856 13.8919 43.4068 14.1735 42.7341 14.3769C42.0301 14.5959 41.2948 14.7054 40.497 14.7054Z" fill="#797D94"/>
<path fill-rule="evenodd" clip-rule="evenodd" d="M43.4533 22.3085C38.3064 26.11 30.8285 28.1281 24.3988 28.1281C15.3878 28.1281 7.26858 24.7959 1.13612 19.2579C0.65115 18.8199 1.08918 18.2254 1.66801 18.5696C8.30109 22.418 16.4829 24.749 24.9464 24.749C30.6564 24.749 36.9297 23.56 42.7024 21.1196C43.5628 20.7285 44.298 21.6828 43.4533 22.3085Z" fill="#797D94"/>
<path fill-rule="evenodd" clip-rule="evenodd" d="M45.5959 19.8683C44.9388 19.0235 41.2468 19.4616 39.5729 19.6649C39.0723 19.7275 38.9941 19.2895 39.4478 18.961C42.3888 16.8959 47.2229 17.4904 47.786 18.1788C48.3492 18.8827 47.6296 23.7167 44.8763 26.0321C44.4539 26.3919 44.0471 26.2042 44.2348 25.7348C44.8606 24.1861 46.2529 20.6974 45.5959 19.8683Z" fill="#797D94"/>
</g>
<defs>
<clipPath id="clip0_759_6264">
<rect width="48" height="28.128" fill="white" transform="translate(0.5)"/>
</clipPath>
</defs>
</svg>
