<svg width="57" height="45" viewBox="0 0 57 45" fill="none" xmlns="http://www.w3.org/2000/svg">
<path d="M36.032 12.3919H37.7409L42.6092 7.53075L42.8487 5.46815C33.7903 -2.51508 19.9623 -1.65488 11.9673 7.39012C9.74441 9.90275 8.1318 12.8912 7.25391 16.1257C7.79614 15.9031 8.39705 15.8679 8.96276 16.0226L18.6971 14.4194C18.6971 14.4194 19.1924 13.6014 19.4482 13.6529C23.779 8.90426 31.0675 8.35111 36.0673 12.3919H36.032Z" fill="#797D94"/>
<path d="M49.5438 16.1256C48.4241 12.0121 46.1284 8.31343 42.9337 5.48438L36.103 12.305C38.9879 14.6583 40.631 18.2046 40.5606 21.9243V23.1361C43.9196 23.1361 46.6401 25.855 46.6401 29.2067C46.6401 32.5608 43.9172 35.2773 40.5606 35.2773H28.3991L27.1855 36.5055V43.7879L28.3991 44.9997H40.5606C47.5321 45.0536 53.7173 40.5417 55.7876 33.8944C57.8533 27.2449 55.3182 20.0258 49.5438 16.1256Z" fill="#9398B1"/>
<path d="M16.2208 44.9322H28.3822V35.2121H16.2208C15.3546 35.2121 14.4978 35.027 13.7091 34.666L12.0003 35.1934L7.09909 40.0546L6.67188 41.7609C9.42059 43.8329 12.7749 44.9462 16.2208 44.9322Z" fill="#797D94"/>
<path d="M16.2212 13.3975C9.46564 13.4374 3.48232 17.7572 1.32748 24.1489C-0.827359 30.5406 1.32044 37.5957 6.67467 41.7068L13.7284 34.6635C10.6675 33.283 9.30837 29.6875 10.6909 26.631C12.0735 23.5746 15.6743 22.2175 18.7352 23.5981C20.0826 24.2075 21.1623 25.2857 21.7726 26.631L28.8263 19.5877C25.8241 15.6711 21.16 13.3811 16.2212 13.3975Z" fill="#9398B1"/>
</svg>
