<svg width="49" height="48" viewBox="0 0 49 48" fill="none" xmlns="http://www.w3.org/2000/svg">
<g clip-path="url(#clip0_759_5252)">
<path d="M22.9295 0.0373191C22.8263 0.0466931 22.4982 0.0795024 22.203 0.102938C15.3927 0.71694 9.01362 4.39158 4.97339 10.0395C2.72361 13.1798 1.28469 16.7419 0.740995 20.515C0.548826 21.8321 0.525391 22.2211 0.525391 24.0069C0.525391 25.7926 0.548826 26.1816 0.740995 27.4987C2.04399 36.5025 8.45118 44.0674 17.141 46.8702C18.6971 47.3718 20.3375 47.7139 22.203 47.9201C22.9295 47.9998 26.0698 47.9998 26.7963 47.9201C30.0163 47.5639 32.7441 46.7671 35.4345 45.3938C35.8469 45.1829 35.9266 45.1267 35.8704 45.0798C35.8329 45.0517 34.0752 42.6941 31.9661 39.8444L28.1321 34.6652L23.3279 27.5549C20.6844 23.646 18.5096 20.4494 18.4908 20.4494C18.4721 20.4447 18.4533 23.6038 18.444 27.4612C18.4299 34.2152 18.4252 34.4871 18.3408 34.6464C18.219 34.8761 18.1252 34.9698 17.9284 35.073C17.7784 35.148 17.6472 35.162 16.9394 35.162H16.1286L15.9129 35.0261C15.7723 34.937 15.6692 34.8199 15.5989 34.6839L15.5005 34.473L15.5099 25.0755L15.5239 15.6733L15.6692 15.4905C15.7442 15.3921 15.9036 15.2655 16.0161 15.2046C16.2082 15.1108 16.2832 15.1015 17.0941 15.1015C18.0502 15.1015 18.2096 15.139 18.458 15.4108C18.5283 15.4858 21.1296 19.4042 24.2418 24.124C27.354 28.8439 31.6099 35.2886 33.7003 38.4523L37.4968 44.2033L37.6889 44.0768C39.3903 42.9706 41.1902 41.3958 42.615 39.7553C45.6475 36.2728 47.602 32.0264 48.2582 27.4987C48.4504 26.1816 48.4738 25.7926 48.4738 24.0069C48.4738 22.2211 48.4504 21.8321 48.2582 20.515C46.9552 11.5112 40.548 3.94631 31.8583 1.14346C30.3256 0.646635 28.6945 0.30448 26.8666 0.0982506C26.4166 0.0513802 23.3185 -0.000177283 22.9295 0.0373191ZM32.7441 14.539C32.9691 14.6515 33.1519 14.8671 33.2175 15.0921C33.255 15.214 33.2644 17.82 33.255 23.6928L33.2409 32.1201L31.7552 29.8422L30.2647 27.5643V21.4384C30.2647 17.4778 30.2834 15.2515 30.3115 15.1437C30.3865 14.8812 30.5506 14.675 30.7756 14.5531C30.9677 14.4547 31.038 14.4453 31.7739 14.4453C32.4676 14.4453 32.5894 14.4547 32.7441 14.539Z" fill="#797D94"/>
<path d="M37.2636 44.3064C37.0996 44.4095 37.048 44.4799 37.1933 44.4002C37.2964 44.3392 37.4652 44.2127 37.4371 44.208C37.423 44.208 37.3433 44.2549 37.2636 44.3064ZM36.9402 44.5174C36.8559 44.583 36.8559 44.5877 36.959 44.5361C37.0152 44.508 37.0621 44.4752 37.0621 44.4658C37.0621 44.4283 37.0387 44.4377 36.9402 44.5174ZM36.7059 44.658C36.6215 44.7236 36.6215 44.7283 36.7246 44.6767C36.7809 44.6486 36.8277 44.6158 36.8277 44.6064C36.8277 44.5689 36.8043 44.5783 36.7059 44.658ZM36.4715 44.7986C36.3872 44.8642 36.3872 44.8689 36.4903 44.8173C36.5465 44.7892 36.5934 44.7564 36.5934 44.747C36.5934 44.7095 36.57 44.7189 36.4715 44.7986ZM36.1153 44.9861C35.9372 45.0798 35.9466 45.1173 36.1247 45.0282C36.2044 44.9861 36.2653 44.9439 36.2653 44.9345C36.2653 44.9017 36.2606 44.9064 36.1153 44.9861Z" fill="black"/>
</g>
<defs>
<clipPath id="clip0_759_5252">
<rect width="48" height="48" fill="white" transform="translate(0.5)"/>
</clipPath>
</defs>
</svg>
