<svg width="49" height="48" viewBox="0 0 49 48" fill="none" xmlns="http://www.w3.org/2000/svg">
<path d="M23.9613 0C11.9626 0 12.7114 5.30444 12.7114 5.30444L12.7262 10.8001H24.1755V12.4488H8.1757C8.1757 12.4488 0.5 11.5605 0.5 23.9039C0.5 36.2443 7.20092 35.8076 7.20092 35.8076H11.2005V30.0801C11.2005 30.0801 10.9849 23.2489 17.7951 23.2489H29.1498C29.1498 23.2489 35.5303 23.3543 35.5303 16.9628V6.39454C35.5303 6.39454 36.4991 0 23.9613 0ZM17.6474 3.69489C18.7861 3.69489 19.7077 4.63442 19.7077 5.79529C19.7077 6.95615 18.7861 7.89568 17.6474 7.89568C17.3767 7.89608 17.1086 7.84202 16.8585 7.73661C16.6083 7.63119 16.381 7.47649 16.1896 7.28137C15.9982 7.08626 15.8465 6.85455 15.7431 6.59954C15.6397 6.34453 15.5866 6.07123 15.587 5.79529C15.587 4.63442 16.5086 3.69489 17.6474 3.69489Z" fill="#797D94"/>
<path d="M24.5296 48C36.7892 48 36.0241 42.6953 36.0241 42.6953L36.009 37.1994H24.3108V35.5506H40.6569C40.6569 35.5506 48.5009 36.439 48.5009 24.0966C48.5009 11.7542 41.6543 12.1924 41.6543 12.1924H37.5678V17.9186C37.5678 17.9186 37.7881 24.7501 30.8299 24.7501H19.2283C19.2283 24.7501 12.7091 24.6447 12.7091 31.0365V41.6051C12.7091 41.6051 11.7192 48 24.5296 48ZM30.9808 44.3049C30.7042 44.3053 30.4303 44.2513 30.1747 44.1458C29.9191 44.0404 29.6869 43.8857 29.4914 43.6906C29.2958 43.4955 29.1407 43.2637 29.0351 43.0087C28.9294 42.7537 28.8753 42.4804 28.8757 42.2044C28.8757 41.045 29.8173 40.1054 30.9808 40.1054C32.1443 40.1054 33.0859 41.0435 33.0859 42.2044C33.0859 43.3668 32.1443 44.3049 30.9808 44.3049Z" fill="#9398B1"/>
</svg>
