<svg width="63" height="45" viewBox="0 0 63 45" fill="none" xmlns="http://www.w3.org/2000/svg">
<path d="M62.0631 16.867C61.8901 16.7228 60.3331 15.5406 56.9884 15.5406C56.1234 15.5406 55.2296 15.6271 54.3646 15.7713C53.7302 11.3598 50.0684 9.22613 49.9242 9.11079L49.0304 8.5918L48.4537 9.42796C47.7329 10.5525 47.185 11.8211 46.8679 13.1186C46.2624 15.6271 46.6372 17.9915 47.9059 20.0098C46.3777 20.8748 43.898 21.0767 43.379 21.1055H2.4356C1.36877 21.1055 0.503763 21.9705 0.503763 23.0373C0.446096 26.6127 1.0516 30.188 2.29143 33.5615C3.70427 37.2522 5.80911 39.9914 8.51945 41.6637C11.5758 43.5379 16.564 44.6047 22.1865 44.6047C24.7238 44.6047 27.2612 44.3741 29.7697 43.9127C33.2585 43.2784 36.6032 42.0674 39.6884 40.3085C42.2257 38.838 44.5035 36.9639 46.4354 34.7725C49.6935 31.1107 51.6254 27.0163 53.0382 23.3833H53.6149C57.1614 23.3833 59.3527 21.9705 60.5637 20.7595C61.3711 20.0098 61.9766 19.0872 62.4091 18.0491L62.6686 17.2995L62.0631 16.867Z" fill="#797D94"/>
<path d="M6.24212 19.9239H11.7205C11.98 19.9239 12.2106 19.722 12.2106 19.4337V14.532C12.2106 14.2725 12.0088 14.0419 11.7205 14.0419H6.24212C5.98262 14.0419 5.75195 14.2437 5.75195 14.532V19.4337C5.78079 19.722 5.98262 19.9239 6.24212 19.9239ZM13.7965 19.9239H19.2748C19.5343 19.9239 19.765 19.722 19.765 19.4337V14.532C19.765 14.2725 19.5632 14.0419 19.2748 14.0419H13.7965C13.537 14.0419 13.3063 14.2437 13.3063 14.532V19.4337C13.3351 19.722 13.537 19.9239 13.7965 19.9239ZM21.495 19.9239H26.9733C27.2328 19.9239 27.4635 19.722 27.4635 19.4337V14.532C27.4635 14.2725 27.2617 14.0419 26.9733 14.0419H21.495C21.2355 14.0419 21.0048 14.2437 21.0048 14.532V19.4337C21.0048 19.722 21.2067 19.9239 21.495 19.9239ZM29.0782 19.9239H34.5565C34.816 19.9239 35.0467 19.722 35.0467 19.4337V14.532C35.0467 14.2725 34.8449 14.0419 34.5565 14.0419H29.0782C28.8187 14.0419 28.588 14.2437 28.588 14.532V19.4337C28.588 19.722 28.8187 19.9239 29.0782 19.9239ZM13.7965 12.9174H19.2748C19.5343 12.9174 19.765 12.6867 19.765 12.4272V7.52552C19.765 7.26602 19.5632 7.03535 19.2748 7.03535H13.7965C13.537 7.03535 13.3063 7.23719 13.3063 7.52552V12.4272C13.3351 12.6867 13.537 12.9174 13.7965 12.9174ZM21.495 12.9174H26.9733C27.2328 12.9174 27.4635 12.6867 27.4635 12.4272V7.52552C27.4635 7.26602 27.2617 7.03535 26.9733 7.03535H21.495C21.2355 7.03535 21.0048 7.23719 21.0048 7.52552V12.4272C21.0048 12.6867 21.2067 12.9174 21.495 12.9174ZM29.0782 12.9174H34.5565C34.816 12.9174 35.0467 12.6867 35.0467 12.4272V7.52552C35.0467 7.26602 34.816 7.03535 34.5565 7.03535H29.0782C28.8187 7.03535 28.588 7.23719 28.588 7.52552V12.4272C28.588 12.6867 28.8187 12.9174 29.0782 12.9174ZM29.0782 5.88201H34.5565C34.816 5.88201 35.0467 5.68018 35.0467 5.39185V0.490171C35.0467 0.230671 34.816 0 34.5565 0H29.0782C28.8187 0 28.588 0.201837 28.588 0.490171V5.39185C28.588 5.65135 28.8187 5.88201 29.0782 5.88201ZM36.719 19.9239H42.1974C42.4569 19.9239 42.6875 19.722 42.6875 19.4337V14.532C42.6875 14.2725 42.4857 14.0419 42.1974 14.0419H36.719C36.4595 14.0419 36.2289 14.2437 36.2289 14.532V19.4337C36.2577 19.722 36.4595 19.9239 36.719 19.9239Z" fill="#797D94"/>
</svg>
