<svg width="35" height="53" viewBox="0 0 35 53" fill="none" xmlns="http://www.w3.org/2000/svg">
<path fill-rule="evenodd" clip-rule="evenodd" d="M18.9083 0.131836C15.1099 1.47824 11.4431 5.40802 7.90801 11.9212C2.60538 21.6909 -4.24322 35.574 5.18736 46.5659C9.55022 51.6511 16.7539 54.6524 26.2076 49.899C33.8021 46.0805 35.9143 35.1221 33.1877 29.9726C27.5634 19.3502 21.8572 16.7302 20.3292 10.1426C19.3105 5.7509 18.8369 2.41398 18.9083 0.131836Z" fill="url(#paint0_linear_759_5223)"/>
<path fill-rule="evenodd" clip-rule="evenodd" d="M18.9089 0C15.0912 1.36028 11.4244 5.29007 7.9086 11.7894C2.63488 21.5383 -4.24262 35.4421 5.18796 46.4341C9.55082 51.5193 16.6618 53.1625 20.6075 50.1466C23.1797 48.1804 24.9292 46.3063 25.9371 42.3575C27.0594 37.9605 26.1983 32.0409 25.6083 29.3215C24.8617 25.8804 24.6173 22.1036 24.8752 17.991C24.7843 17.8803 24.7164 17.7974 24.6715 17.7425C22.6173 15.2285 21.0322 13.0388 20.3298 10.0108C19.3111 5.61907 18.8375 2.28214 18.9089 0Z" fill="url(#paint1_linear_759_5223)"/>
<path fill-rule="evenodd" clip-rule="evenodd" d="M15.7493 1.71094C12.1934 4.52129 9.5495 9.23521 7.8176 15.8527C5.21976 25.779 4.93826 34.9326 5.85447 40.2567C7.63061 50.578 16.8387 54.4958 26.2836 49.6917C32.0962 46.7351 34.5171 40.3889 34.3889 33.5004C34.2561 26.3678 20.4729 18.2843 18.0319 12.3317C16.4045 8.36327 15.6437 4.82303 15.7493 1.71094Z" fill="url(#paint2_linear_759_5223)"/>
<path fill-rule="evenodd" clip-rule="evenodd" d="M24.762 20.3201C29.0266 25.7894 29.9562 29.5966 27.5508 31.7419C23.9427 34.9598 15.1193 37.0594 9.63024 33.1668C5.97087 30.5717 4.5863 25.0047 5.47652 16.4658C3.96593 19.6206 2.68871 22.8163 1.64486 26.0531C0.601014 29.2899 0.296191 32.6772 0.730395 36.2149C2.03858 38.8615 5.21924 40.629 10.2724 41.5176C17.8521 42.8506 25.0261 42.1919 29.8399 39.7653C33.0491 38.1475 34.5671 36.5371 34.3937 34.934C34.5095 32.5667 33.7795 30.3131 32.2037 28.1733C30.6279 26.0335 28.1473 23.4158 24.762 20.3201Z" fill="url(#paint3_linear_759_5223)"/>
<path fill-rule="evenodd" clip-rule="evenodd" d="M8.09704 14.8594C8.06139 18.8093 9.07702 22.5642 11.1439 26.124C14.2443 31.4638 17.8633 36.7401 23.2788 41.1137C26.8892 44.0295 29.774 44.9715 31.9333 43.9398C30.1597 47.1138 28.2739 48.6691 26.2759 48.6057C23.2788 48.5106 19.6244 47.2008 13.7691 40.1644C9.86553 35.4735 7.19511 31.0362 5.75781 26.8525C5.98574 25.1928 6.22743 23.5397 6.48288 21.8931C6.73834 20.2466 7.27639 17.902 8.09704 14.8594Z" fill="url(#paint4_linear_759_5223)"/>
<path fill-rule="evenodd" clip-rule="evenodd" d="M17.255 20.2796C17.5863 23.4973 18.8384 28.6446 17.255 32.0716C15.6717 35.4986 8.35818 41.6896 10.377 47.1434C12.3958 52.5971 17.3157 51.3727 20.4018 48.8594C23.4879 46.346 25.1398 42.2591 25.5059 39.3851C25.8721 36.511 24.6299 30.9808 24.2259 26.1705C23.9565 22.9637 24.1393 20.2142 24.7741 17.922L23.8284 16.732L18.2624 15.084C17.37 16.4026 17.0342 18.1345 17.255 20.2796Z" fill="url(#paint5_linear_759_5223)"/>
<path fill-rule="evenodd" clip-rule="evenodd" d="M19.2435 4.3418C17.442 5.10302 15.7352 6.61137 14.123 8.86685C11.7047 12.2501 10.4731 14.2781 11.3848 20.9844C11.9926 25.4553 12.4276 29.5685 12.6899 33.3239L20.4858 10.673C20.1992 9.51888 19.9608 8.47653 19.7707 7.54598C19.5805 6.61543 19.4048 5.54737 19.2435 4.3418Z" fill="url(#paint6_linear_759_5223)"/>
<path fill-rule="evenodd" clip-rule="evenodd" d="M20.4712 10.6279C18.4922 11.7831 16.9587 14.1496 15.8708 17.7276C14.7828 21.3056 13.7875 26.3076 12.8848 32.7335C14.0888 28.6464 14.8874 25.6861 15.2808 23.8526C15.8708 21.1025 16.0723 17.2134 17.6389 14.5731C18.6832 12.8129 19.6274 11.4978 20.4712 10.6279Z" fill="#797D94" fill-opacity="0.22"/>
<path fill-rule="evenodd" clip-rule="evenodd" d="M11.3066 48.9648C14.5634 49.4301 16.2664 49.8438 16.4156 50.2058C16.6394 50.7488 16.0034 51.2456 14.1955 50.9118C12.9903 50.6892 12.0274 50.0403 11.3066 48.9648Z" fill="white"/>
<path fill-rule="evenodd" clip-rule="evenodd" d="M12.9421 4.3418C11.1508 6.48179 9.59854 8.75053 8.28544 11.148C6.97234 13.5455 6.03408 15.3341 5.47068 16.5138C5.29606 17.3937 5.21083 18.692 5.21499 20.4088C5.21916 22.1255 5.36764 24.0343 5.66045 26.1352C5.91682 22.0212 6.70163 18.0279 8.01489 14.1553C9.32815 10.2827 10.9706 7.0115 12.9421 4.3418Z" fill="#EDEDED" fill-opacity="0.603261"/>
<defs>
<linearGradient id="paint0_linear_759_5223" x1="18.1766" y1="3.98532" x2="16.3629" y2="52.2439" gradientUnits="userSpaceOnUse">
<stop stop-color="#D9D8DC"/>
<stop offset="1" stop-color="white" stop-opacity="0.385275"/>
</linearGradient>
<linearGradient id="paint1_linear_759_5223" x1="18.997" y1="3.97289" x2="0.042162" y2="45.5166" gradientUnits="userSpaceOnUse">
<stop stop-color="#797D94"/>
<stop offset="1" stop-color="#A4A7BB"/>
</linearGradient>
<linearGradient id="paint2_linear_759_5223" x1="21.1145" y1="17.4335" x2="21.1145" y2="50.8413" gradientUnits="userSpaceOnUse">
<stop stop-color="#797D94"/>
<stop offset="1" stop-color="#B7B4B4" stop-opacity="0.277683"/>
</linearGradient>
<linearGradient id="paint3_linear_759_5223" x1="3.97086" y1="19.692" x2="12.4758" y2="42.2211" gradientUnits="userSpaceOnUse">
<stop stop-color="#797D94"/>
<stop offset="1" stop-color="#9093A9" stop-opacity="0"/>
</linearGradient>
<linearGradient id="paint4_linear_759_5223" x1="26.7041" y1="47.3961" x2="3.31645" y2="28.0171" gradientUnits="userSpaceOnUse">
<stop stop-color="#797D94"/>
<stop offset="1" stop-color="#9699AB"/>
</linearGradient>
<linearGradient id="paint5_linear_759_5223" x1="21.8956" y1="17.7478" x2="5.40063" y2="42.8412" gradientUnits="userSpaceOnUse">
<stop stop-color="#715383" stop-opacity="0.145239"/>
<stop offset="1" stop-color="#F4F4F4" stop-opacity="0.233639"/>
</linearGradient>
<linearGradient id="paint6_linear_759_5223" x1="23.4748" y1="25.4017" x2="11.7934" y2="24.6886" gradientUnits="userSpaceOnUse">
<stop stop-color="#A1A3A8" stop-opacity="0.356091"/>
<stop offset="1" stop-color="#8F9FAA" stop-opacity="0.581975"/>
</linearGradient>
</defs>
</svg>
