<svg width="69" height="73" viewBox="0 0 69 73" fill="none" xmlns="http://www.w3.org/2000/svg">
<g filter="url(#filter0_b_469_13487)">
<rect x="10" y="13" width="48" height="48" rx="8" fill="#454545" fill-opacity="0.35"/>
<rect x="9.6" y="12.6" width="48.8" height="48.8" rx="8.4" stroke="url(#paint0_linear_469_13487)" stroke-width="0.8" stroke-linecap="round" stroke-linejoin="round"/>
</g>
<g filter="url(#filter1_f_469_13487)">
<path d="M33.7479 43.2672L37.6146 33.6006C37.9368 32.9561 37.5072 32.0969 36.8627 31.882C36.2183 31.5598 35.359 31.9894 35.1442 32.6339L31.2775 42.3006C30.9553 42.945 31.385 43.8043 32.0294 44.0191C32.2442 44.1265 32.3516 44.1265 32.5664 44.1265C33.1035 44.0191 33.5331 43.6969 33.7479 43.2672Z" fill="url(#paint1_linear_469_13487)" fill-opacity="0.3"/>
<path d="M30.2044 38.8633L28.5933 37.8966L30.2044 36.9299C30.8488 36.6077 31.0637 35.7485 30.7414 35.104C30.4192 34.4596 29.56 34.2448 28.9155 34.567L26.1229 36.1781C25.5859 36.5003 25.1562 37.1448 25.1562 37.7892C25.1562 38.4337 25.4785 39.0781 26.1229 39.4003L28.9155 41.0114C29.1303 41.3337 29.3451 41.3337 29.56 41.3337C29.9896 41.3337 30.5266 41.1188 30.7414 40.6892C31.1711 40.0448 30.8488 39.1855 30.2044 38.8633Z" fill="url(#paint2_linear_469_13487)" fill-opacity="0.3"/>
<path d="M38.1526 40.6892C38.3674 41.1188 38.9044 41.3337 39.334 41.3337C39.5489 41.3337 39.7637 41.2263 39.9785 41.1188L42.7711 39.5077C43.3081 39.1855 43.7377 38.5411 43.7377 37.8966C43.7377 37.2522 43.4155 36.6077 42.7711 36.2855L39.9785 34.6744C39.334 34.3522 38.4748 34.567 38.1526 35.2114C37.8303 35.8559 38.0452 36.7151 38.6896 37.0374L40.3007 38.004L38.6896 38.9707C37.9377 39.1855 37.7229 40.0448 38.1526 40.6892Z" fill="url(#paint3_linear_469_13487)" fill-opacity="0.3"/>
<path d="M22.1481 39.2938C22.0407 38.7568 21.5037 38.3271 20.9667 38.3271C20.4296 38.4346 20 38.9716 20 39.5086C20 39.9383 20.1074 40.2605 20.2148 40.6901C20.3222 41.2271 20.7519 41.5494 21.2889 41.5494C21.3963 41.5494 21.3963 41.5494 21.5037 41.5494C22.0407 41.442 22.4704 40.9049 22.363 40.2605C22.2556 39.9383 22.1481 39.616 22.1481 39.2938Z" fill="url(#paint4_linear_469_13487)" fill-opacity="0.3"/>
<path d="M21.1824 35.2114C21.2898 35.2114 21.3972 35.2114 21.5047 35.2114C21.9343 35.2114 22.3639 34.8892 22.5787 34.4595C22.6861 34.1373 22.7935 33.8151 22.901 33.4929C23.1158 32.9558 22.7935 32.3114 22.2565 32.0966C21.7195 31.8818 21.075 32.204 20.8602 32.741C20.7528 33.0633 20.6454 33.4929 20.538 33.8151C20.3232 34.4595 20.6454 34.9966 21.1824 35.2114Z" fill="url(#paint5_linear_469_13487)" fill-opacity="0.3"/>
<path d="M24.619 29.7342C24.9412 29.7342 25.156 29.6268 25.3708 29.412C25.5857 29.1972 25.8005 28.9824 26.0153 28.7676C26.4449 28.3379 26.4449 27.6935 26.1227 27.2638C25.6931 26.8342 25.0486 26.8342 24.619 27.1564C24.4042 27.3713 24.082 27.6935 23.8671 27.9083C23.4375 28.3379 23.4375 28.9824 23.8671 29.412C24.082 29.6268 24.4042 29.7342 24.619 29.7342Z" fill="url(#paint6_linear_469_13487)" fill-opacity="0.3"/>
<path d="M29.237 49.0674C28.9148 48.9599 28.7 48.7451 28.3778 48.6377C27.8407 48.3155 27.1963 48.5303 26.8741 49.0674C26.5518 49.6044 26.7666 50.2488 27.3037 50.5711C27.6259 50.7859 27.9481 50.8933 28.2703 51.1081C28.3778 51.2155 28.5926 51.2155 28.7 51.2155C29.1296 51.2155 29.4518 51.0007 29.6666 50.5711C29.9889 50.034 29.7741 49.3896 29.237 49.0674Z" fill="url(#paint7_linear_469_13487)" fill-opacity="0.3"/>
<path d="M24.0814 44.7711C23.7592 44.234 23.1147 44.1266 22.5777 44.4488C22.0407 44.7711 21.9332 45.4155 22.2555 45.9525C22.4703 46.2748 22.6851 46.597 22.8999 46.9192C23.1147 47.2414 23.437 47.3488 23.7592 47.3488C23.974 47.3488 24.1888 47.2414 24.4036 47.134C24.8332 46.8118 24.9407 46.0599 24.6184 45.6303C24.511 45.3081 24.2962 44.9859 24.0814 44.7711Z" fill="url(#paint8_linear_469_13487)" fill-opacity="0.3"/>
<path d="M36.7565 23.6119L37.0787 23.397C37.7231 22.9674 37.8306 22.1082 37.4009 21.5711C36.9713 20.9267 36.112 20.7119 35.575 21.1415L33.1046 22.86C32.7824 23.0748 32.4602 23.5045 32.3528 23.9341C32.2454 24.3637 32.3528 24.7933 32.675 25.223L34.5009 27.5859C34.7157 27.9082 35.1454 28.123 35.575 28.123C35.8972 28.123 36.112 28.0156 36.3269 27.8007C36.9713 27.3711 37.0787 26.5119 36.6491 25.8674L36.4343 25.5452C42.3417 26.5119 46.8528 31.56 46.8528 37.7896C46.8528 44.6637 41.2676 50.1415 34.5009 50.1415C34.2861 50.1415 34.1787 50.1415 33.9639 50.1415C33.4269 50.1415 32.8898 50.5711 32.8898 51.2156C32.8898 51.86 33.3194 52.2896 33.9639 52.2896C34.1787 52.2896 34.3935 52.2896 34.5009 52.2896C42.5565 52.2896 49.0009 45.7378 49.0009 37.7896C49.0009 30.7007 43.6306 24.6859 36.7565 23.6119Z" fill="url(#paint9_linear_469_13487)" fill-opacity="0.3"/>
</g>
<g filter="url(#filter2_d_469_13487)">
<path d="M33.7479 43.2672L37.6146 33.6006C37.9368 32.9561 37.5072 32.0969 36.8627 31.882C36.2183 31.5598 35.359 31.9894 35.1442 32.6339L31.2775 42.3006C30.9553 42.945 31.385 43.8043 32.0294 44.0191C32.2442 44.1265 32.3516 44.1265 32.5664 44.1265C33.1035 44.0191 33.5331 43.6969 33.7479 43.2672Z" fill="url(#paint10_linear_469_13487)" stroke="url(#paint11_linear_469_13487)" stroke-width="0.5"/>
<path d="M30.2044 38.8633L28.5933 37.8966L30.2044 36.9299C30.8488 36.6077 31.0637 35.7485 30.7414 35.104C30.4192 34.4596 29.56 34.2448 28.9155 34.567L26.1229 36.1781C25.5859 36.5003 25.1562 37.1448 25.1562 37.7892C25.1562 38.4337 25.4785 39.0781 26.1229 39.4003L28.9155 41.0114C29.1303 41.3337 29.3451 41.3337 29.56 41.3337C29.9896 41.3337 30.5266 41.1188 30.7414 40.6892C31.1711 40.0448 30.8488 39.1855 30.2044 38.8633Z" fill="url(#paint12_linear_469_13487)" stroke="url(#paint13_linear_469_13487)" stroke-width="0.5"/>
<path d="M38.1526 40.6892C38.3674 41.1188 38.9044 41.3337 39.334 41.3337C39.5489 41.3337 39.7637 41.2263 39.9785 41.1188L42.7711 39.5077C43.3081 39.1855 43.7377 38.5411 43.7377 37.8966C43.7377 37.2522 43.4155 36.6077 42.7711 36.2855L39.9785 34.6744C39.334 34.3522 38.4748 34.567 38.1526 35.2114C37.8303 35.8559 38.0452 36.7151 38.6896 37.0374L40.3007 38.004L38.6896 38.9707C37.9377 39.1855 37.7229 40.0448 38.1526 40.6892Z" fill="url(#paint14_linear_469_13487)" stroke="url(#paint15_linear_469_13487)" stroke-width="0.5"/>
<path d="M22.1481 39.2938C22.0407 38.7568 21.5037 38.3271 20.9667 38.3271C20.4296 38.4346 20 38.9716 20 39.5086C20 39.9383 20.1074 40.2605 20.2148 40.6901C20.3222 41.2271 20.7519 41.5494 21.2889 41.5494C21.3963 41.5494 21.3963 41.5494 21.5037 41.5494C22.0407 41.442 22.4704 40.9049 22.363 40.2605C22.2556 39.9383 22.1481 39.616 22.1481 39.2938Z" fill="url(#paint16_linear_469_13487)" stroke="url(#paint17_linear_469_13487)" stroke-width="0.5"/>
<path d="M21.1824 35.2114C21.2898 35.2114 21.3972 35.2114 21.5047 35.2114C21.9343 35.2114 22.3639 34.8892 22.5787 34.4595C22.6861 34.1373 22.7935 33.8151 22.901 33.4929C23.1158 32.9558 22.7935 32.3114 22.2565 32.0966C21.7195 31.8818 21.075 32.204 20.8602 32.741C20.7528 33.0633 20.6454 33.4929 20.538 33.8151C20.3232 34.4595 20.6454 34.9966 21.1824 35.2114Z" fill="url(#paint18_linear_469_13487)" stroke="url(#paint19_linear_469_13487)" stroke-width="0.5"/>
<path d="M24.619 29.7342C24.9412 29.7342 25.156 29.6268 25.3708 29.412C25.5857 29.1972 25.8005 28.9824 26.0153 28.7676C26.4449 28.3379 26.4449 27.6935 26.1227 27.2638C25.6931 26.8342 25.0486 26.8342 24.619 27.1564C24.4042 27.3713 24.082 27.6935 23.8671 27.9083C23.4375 28.3379 23.4375 28.9824 23.8671 29.412C24.082 29.6268 24.4042 29.7342 24.619 29.7342Z" fill="url(#paint20_linear_469_13487)" stroke="url(#paint21_linear_469_13487)" stroke-width="0.5"/>
<path d="M29.237 49.0674C28.9148 48.9599 28.7 48.7451 28.3778 48.6377C27.8407 48.3155 27.1963 48.5303 26.8741 49.0674C26.5518 49.6044 26.7666 50.2488 27.3037 50.5711C27.6259 50.7859 27.9481 50.8933 28.2703 51.1081C28.3778 51.2155 28.5926 51.2155 28.7 51.2155C29.1296 51.2155 29.4518 51.0007 29.6666 50.5711C29.9889 50.034 29.7741 49.3896 29.237 49.0674Z" fill="url(#paint22_linear_469_13487)" stroke="url(#paint23_linear_469_13487)" stroke-width="0.5"/>
<path d="M24.0814 44.7711C23.7592 44.234 23.1147 44.1266 22.5777 44.4488C22.0407 44.7711 21.9332 45.4155 22.2555 45.9525C22.4703 46.2748 22.6851 46.597 22.8999 46.9192C23.1147 47.2414 23.437 47.3488 23.7592 47.3488C23.974 47.3488 24.1888 47.2414 24.4036 47.134C24.8332 46.8118 24.9407 46.0599 24.6184 45.6303C24.511 45.3081 24.2962 44.9859 24.0814 44.7711Z" fill="url(#paint24_linear_469_13487)" stroke="url(#paint25_linear_469_13487)" stroke-width="0.5"/>
<path d="M36.7565 23.6119L37.0787 23.397C37.7231 22.9674 37.8306 22.1082 37.4009 21.5711C36.9713 20.9267 36.112 20.7119 35.575 21.1415L33.1046 22.86C32.7824 23.0748 32.4602 23.5045 32.3528 23.9341C32.2454 24.3637 32.3528 24.7933 32.675 25.223L34.5009 27.5859C34.7157 27.9082 35.1454 28.123 35.575 28.123C35.8972 28.123 36.112 28.0156 36.3269 27.8007C36.9713 27.3711 37.0787 26.5119 36.6491 25.8674L36.4343 25.5452C42.3417 26.5119 46.8528 31.56 46.8528 37.7896C46.8528 44.6637 41.2676 50.1415 34.5009 50.1415C34.2861 50.1415 34.1787 50.1415 33.9639 50.1415C33.4269 50.1415 32.8898 50.5711 32.8898 51.2156C32.8898 51.86 33.3194 52.2896 33.9639 52.2896C34.1787 52.2896 34.3935 52.2896 34.5009 52.2896C42.5565 52.2896 49.0009 45.7378 49.0009 37.7896C49.0009 30.7007 43.6306 24.6859 36.7565 23.6119Z" fill="url(#paint26_linear_469_13487)" stroke="url(#paint27_linear_469_13487)" stroke-width="0.5"/>
</g>
<defs>
<filter id="filter0_b_469_13487" x="-20.8008" y="-17.7998" width="109.602" height="109.6" filterUnits="userSpaceOnUse" color-interpolation-filters="sRGB">
<feFlood flood-opacity="0" result="BackgroundImageFix"/>
<feGaussianBlur in="BackgroundImageFix" stdDeviation="15"/>
<feComposite in2="SourceAlpha" operator="in" result="effect1_backgroundBlur_469_13487"/>
<feBlend mode="normal" in="SourceGraphic" in2="effect1_backgroundBlur_469_13487" result="shape"/>
</filter>
<filter id="filter1_f_469_13487" x="0" y="0.917969" width="69" height="71.3721" filterUnits="userSpaceOnUse" color-interpolation-filters="sRGB">
<feFlood flood-opacity="0" result="BackgroundImageFix"/>
<feBlend mode="normal" in="SourceGraphic" in2="BackgroundImageFix" result="shape"/>
<feGaussianBlur stdDeviation="10" result="effect1_foregroundBlur_469_13487"/>
</filter>
<filter id="filter2_d_469_13487" x="13.75" y="20.666" width="41.5" height="43.874" filterUnits="userSpaceOnUse" color-interpolation-filters="sRGB">
<feFlood flood-opacity="0" result="BackgroundImageFix"/>
<feColorMatrix in="SourceAlpha" type="matrix" values="0 0 0 0 0 0 0 0 0 0 0 0 0 0 0 0 0 0 127 0" result="hardAlpha"/>
<feOffset dy="6"/>
<feGaussianBlur stdDeviation="3"/>
<feComposite in2="hardAlpha" operator="out"/>
<feColorMatrix type="matrix" values="0 0 0 0 0 0 0 0 0 0 0 0 0 0 0 0 0 0 0.25 0"/>
<feBlend mode="normal" in2="BackgroundImageFix" result="effect1_dropShadow_469_13487"/>
<feBlend mode="normal" in="SourceGraphic" in2="effect1_dropShadow_469_13487" result="shape"/>
</filter>
<linearGradient id="paint0_linear_469_13487" x1="30.4647" y1="11.1748" x2="30.4647" y2="61.519" gradientUnits="userSpaceOnUse">
<stop stop-color="white" stop-opacity="0.55"/>
<stop offset="1" stop-color="white" stop-opacity="0"/>
</linearGradient>
<linearGradient id="paint1_linear_469_13487" x1="38.5388" y1="45.8443" x2="28.0862" y2="39.5172" gradientUnits="userSpaceOnUse">
<stop stop-color="#FFC3C3"/>
<stop offset="0.67229" stop-color="#DDCEF0"/>
<stop offset="1" stop-color="#EFAEFF"/>
</linearGradient>
<linearGradient id="paint2_linear_469_13487" x1="31.6554" y1="42.2952" x2="25.0596" y2="36.0056" gradientUnits="userSpaceOnUse">
<stop stop-color="#FFC3C3"/>
<stop offset="0.67229" stop-color="#DDCEF0"/>
<stop offset="1" stop-color="#EFAEFF"/>
</linearGradient>
<linearGradient id="paint3_linear_469_13487" x1="44.459" y1="42.2802" x2="37.9608" y2="35.9606" gradientUnits="userSpaceOnUse">
<stop stop-color="#FFC3C3"/>
<stop offset="0.67229" stop-color="#DDCEF0"/>
<stop offset="1" stop-color="#EFAEFF"/>
</linearGradient>
<linearGradient id="paint4_linear_469_13487" x1="22.6752" y1="41.9974" x2="19.6429" y2="39.4432" gradientUnits="userSpaceOnUse">
<stop stop-color="#FFC3C3"/>
<stop offset="0.67229" stop-color="#DDCEF0"/>
<stop offset="1" stop-color="#EFAEFF"/>
</linearGradient>
<linearGradient id="paint5_linear_469_13487" x1="23.2786" y1="35.6539" x2="20.2583" y2="32.95" gradientUnits="userSpaceOnUse">
<stop stop-color="#FFC3C3"/>
<stop offset="0.67229" stop-color="#DDCEF0"/>
<stop offset="1" stop-color="#EFAEFF"/>
</linearGradient>
<linearGradient id="paint6_linear_469_13487" x1="26.7012" y1="30.1246" x2="24.0433" y2="27.0929" gradientUnits="userSpaceOnUse">
<stop stop-color="#FFC3C3"/>
<stop offset="0.67229" stop-color="#DDCEF0"/>
<stop offset="1" stop-color="#EFAEFF"/>
</linearGradient>
<linearGradient id="paint7_linear_469_13487" x1="30.2027" y1="51.595" x2="27.6805" y2="48.3321" gradientUnits="userSpaceOnUse">
<stop stop-color="#FFC3C3"/>
<stop offset="0.67229" stop-color="#DDCEF0"/>
<stop offset="1" stop-color="#EFAEFF"/>
</linearGradient>
<linearGradient id="paint8_linear_469_13487" x1="25.1452" y1="47.7773" x2="22.2029" y2="44.8021" gradientUnits="userSpaceOnUse">
<stop stop-color="#FFC3C3"/>
<stop offset="0.67229" stop-color="#DDCEF0"/>
<stop offset="1" stop-color="#EFAEFF"/>
</linearGradient>
<linearGradient id="paint9_linear_469_13487" x1="51.0746" y1="56.652" x2="24.5022" y2="40.5287" gradientUnits="userSpaceOnUse">
<stop stop-color="#FFC3C3"/>
<stop offset="0.67229" stop-color="#DDCEF0"/>
<stop offset="1" stop-color="#EFAEFF"/>
</linearGradient>
<linearGradient id="paint10_linear_469_13487" x1="38.5388" y1="45.8443" x2="28.0862" y2="39.5172" gradientUnits="userSpaceOnUse">
<stop stop-color="#FFC3C3"/>
<stop offset="0.67229" stop-color="#DDCEF0"/>
<stop offset="1" stop-color="#EFAEFF"/>
</linearGradient>
<linearGradient id="paint11_linear_469_13487" x1="34.4461" y1="31.7725" x2="34.4461" y2="44.1265" gradientUnits="userSpaceOnUse">
<stop stop-color="white"/>
<stop offset="1" stop-color="white" stop-opacity="0"/>
</linearGradient>
<linearGradient id="paint12_linear_469_13487" x1="31.6554" y1="42.2952" x2="25.0596" y2="36.0056" gradientUnits="userSpaceOnUse">
<stop stop-color="#FFC3C3"/>
<stop offset="0.67229" stop-color="#DDCEF0"/>
<stop offset="1" stop-color="#EFAEFF"/>
</linearGradient>
<linearGradient id="paint13_linear_469_13487" x1="28.0467" y1="34.4189" x2="28.0467" y2="41.3337" gradientUnits="userSpaceOnUse">
<stop stop-color="white"/>
<stop offset="1" stop-color="white" stop-opacity="0"/>
</linearGradient>
<linearGradient id="paint14_linear_469_13487" x1="44.459" y1="42.2802" x2="37.9608" y2="35.9606" gradientUnits="userSpaceOnUse">
<stop stop-color="#FFC3C3"/>
<stop offset="0.67229" stop-color="#DDCEF0"/>
<stop offset="1" stop-color="#EFAEFF"/>
</linearGradient>
<linearGradient id="paint15_linear_469_13487" x1="40.8357" y1="34.5264" x2="40.8357" y2="41.3337" gradientUnits="userSpaceOnUse">
<stop stop-color="white"/>
<stop offset="1" stop-color="white" stop-opacity="0"/>
</linearGradient>
<linearGradient id="paint16_linear_469_13487" x1="22.6752" y1="41.9974" x2="19.6429" y2="39.4432" gradientUnits="userSpaceOnUse">
<stop stop-color="#FFC3C3"/>
<stop offset="0.67229" stop-color="#DDCEF0"/>
<stop offset="1" stop-color="#EFAEFF"/>
</linearGradient>
<linearGradient id="paint17_linear_469_13487" x1="21.1898" y1="38.3271" x2="21.1898" y2="41.5494" gradientUnits="userSpaceOnUse">
<stop stop-color="white"/>
<stop offset="1" stop-color="white" stop-opacity="0"/>
</linearGradient>
<linearGradient id="paint18_linear_469_13487" x1="23.2786" y1="35.6539" x2="20.2583" y2="32.95" gradientUnits="userSpaceOnUse">
<stop stop-color="#FFC3C3"/>
<stop offset="0.67229" stop-color="#DDCEF0"/>
<stop offset="1" stop-color="#EFAEFF"/>
</linearGradient>
<linearGradient id="paint19_linear_469_13487" x1="21.7195" y1="32.0293" x2="21.7195" y2="35.2114" gradientUnits="userSpaceOnUse">
<stop stop-color="white"/>
<stop offset="1" stop-color="white" stop-opacity="0"/>
</linearGradient>
<linearGradient id="paint20_linear_469_13487" x1="26.7012" y1="30.1246" x2="24.0433" y2="27.0929" gradientUnits="userSpaceOnUse">
<stop stop-color="#FFC3C3"/>
<stop offset="0.67229" stop-color="#DDCEF0"/>
<stop offset="1" stop-color="#EFAEFF"/>
</linearGradient>
<linearGradient id="paint21_linear_469_13487" x1="24.9487" y1="26.9268" x2="24.9487" y2="29.7342" gradientUnits="userSpaceOnUse">
<stop stop-color="white"/>
<stop offset="1" stop-color="white" stop-opacity="0"/>
</linearGradient>
<linearGradient id="paint22_linear_469_13487" x1="30.2027" y1="51.595" x2="27.6805" y2="48.3321" gradientUnits="userSpaceOnUse">
<stop stop-color="#FFC3C3"/>
<stop offset="0.67229" stop-color="#DDCEF0"/>
<stop offset="1" stop-color="#EFAEFF"/>
</linearGradient>
<linearGradient id="paint23_linear_469_13487" x1="28.2703" y1="48.4863" x2="28.2703" y2="51.2155" gradientUnits="userSpaceOnUse">
<stop stop-color="white"/>
<stop offset="1" stop-color="white" stop-opacity="0"/>
</linearGradient>
<linearGradient id="paint24_linear_469_13487" x1="25.1452" y1="47.7773" x2="22.2029" y2="44.8021" gradientUnits="userSpaceOnUse">
<stop stop-color="#FFC3C3"/>
<stop offset="0.67229" stop-color="#DDCEF0"/>
<stop offset="1" stop-color="#EFAEFF"/>
</linearGradient>
<linearGradient id="paint25_linear_469_13487" x1="23.44" y1="44.2676" x2="23.44" y2="47.3488" gradientUnits="userSpaceOnUse">
<stop stop-color="white"/>
<stop offset="1" stop-color="white" stop-opacity="0"/>
</linearGradient>
<linearGradient id="paint26_linear_469_13487" x1="51.0746" y1="56.652" x2="24.5022" y2="40.5287" gradientUnits="userSpaceOnUse">
<stop stop-color="#FFC3C3"/>
<stop offset="0.67229" stop-color="#DDCEF0"/>
<stop offset="1" stop-color="#EFAEFF"/>
</linearGradient>
<linearGradient id="paint27_linear_469_13487" x1="40.6567" y1="20.918" x2="40.6567" y2="52.2896" gradientUnits="userSpaceOnUse">
<stop stop-color="white"/>
<stop offset="1" stop-color="white" stop-opacity="0"/>
</linearGradient>
</defs>
</svg>
