<svg width="49" height="45" viewBox="0 0 49 45" fill="none" xmlns="http://www.w3.org/2000/svg">
<g clip-path="url(#clip0_759_5247)">
<path d="M16.5128 0.0451362H30.6996L15.9722 43.4244C15.8969 43.6459 15.7873 43.8544 15.6473 44.0424C15.5077 44.2306 15.3393 44.3955 15.1481 44.5319C14.9569 44.6683 14.7459 44.7743 14.5218 44.8457C14.2976 44.9172 14.0639 44.9541 13.829 44.9541H2.78802C2.42962 44.9541 2.07601 44.8695 1.75717 44.7064C1.43798 44.5437 1.16246 44.3077 0.953461 44.018C0.744328 43.7284 0.607513 43.3934 0.554305 43.0409C0.500964 42.6884 0.533328 42.3281 0.647801 41.9905L14.369 1.57368C14.4439 1.35217 14.5535 1.14376 14.6938 0.955594C14.8334 0.767429 15.0024 0.602486 15.193 0.466126C15.3842 0.329766 15.5952 0.223774 15.8193 0.152319C16.0435 0.0808638 16.2772 0.0439453 16.5122 0.0439453V0.0445408L16.5128 0.0451362Z" fill="#797D94"/>
<path d="M42.6652 44.954H29.9263C29.7843 44.954 29.6422 44.9409 29.502 44.9141C29.3623 44.8879 29.2251 44.8486 29.0926 44.7968C28.9602 44.745 28.8331 44.6807 28.7127 44.6057C28.5924 44.5302 28.4794 44.4436 28.3752 44.3473L13.9193 30.9339C13.7664 30.7921 13.6599 30.6079 13.6136 30.4052C13.5674 30.2025 13.5837 29.9906 13.6603 29.7972C13.737 29.6038 13.8704 29.4378 14.0434 29.3208C14.2166 29.2041 14.421 29.1416 14.6301 29.1416H37.1267L42.664 44.9546L42.6652 44.954Z" fill="#797D94"/>
<path d="M30.7504 0.0459264L20.8195 29.1454L37.0458 29.1419L42.6119 44.9549H29.921C29.7897 44.9537 29.6585 44.9418 29.529 44.9186C29.3995 44.8953 29.2725 44.8614 29.149 44.8161C28.9015 44.7265 28.6712 44.5954 28.4682 44.4285L18.7098 35.3799L15.9781 43.3841C15.9073 43.5841 15.8102 43.7741 15.6892 43.9486C15.4465 44.2995 15.1146 44.5804 14.7272 44.7625C14.5344 44.8532 14.3302 44.9179 14.1201 44.9549H2.79451C2.43251 44.9561 2.07531 44.8703 1.75347 44.7048C1.43158 44.5394 1.1545 44.2994 0.94565 44.0052C0.736804 43.7109 0.602332 43.3711 0.5536 43.0143C0.505045 42.6574 0.543481 42.2941 0.665676 41.955L14.3646 1.60484C14.436 1.37916 14.5433 1.16658 14.6823 0.974843C14.8207 0.783105 14.9898 0.613995 15.1815 0.474657C15.3733 0.33532 15.5867 0.226946 15.8126 0.1543C16.0386 0.0816539 16.2753 0.0447354 16.5133 0.0459264H30.751H30.7504Z" fill="url(#paint0_linear_759_5247)"/>
<path d="M48.3528 41.9912C48.4674 42.3291 48.4996 42.689 48.4469 43.0416C48.3937 43.3941 48.2571 43.7289 48.0484 44.0188C47.8393 44.3083 47.5639 44.5442 47.2449 44.707C46.9259 44.8697 46.5724 44.9547 46.2138 44.9549H30.4022C30.7606 44.9549 31.1142 44.8697 31.4336 44.7071C31.7525 44.5446 32.0282 44.3082 32.2374 44.0188C32.4465 43.7294 32.5832 43.3942 32.6365 43.0416C32.6898 42.6891 32.6575 42.3289 32.543 41.9912L18.8213 1.57325C18.6702 1.12802 18.3824 0.741068 17.9984 0.466888C17.8078 0.330528 17.5968 0.225132 17.3733 0.153677C17.1497 0.0822215 16.916 0.0458984 16.6816 0.0458984H32.4927C32.7276 0.0458984 32.9607 0.0822215 33.1849 0.153677C33.4084 0.225132 33.6194 0.331123 33.8106 0.466888C34.0012 0.603248 34.1696 0.768191 34.3092 0.95576C34.4489 1.14333 34.558 1.35174 34.6335 1.57325L48.3552 41.9912H48.3528Z" fill="#797D94"/>
</g>
<defs>
<linearGradient id="paint0_linear_759_5247" x1="26.2872" y1="23.5368" x2="22.8816" y2="24.6995" gradientUnits="userSpaceOnUse">
<stop stop-opacity="0.3"/>
<stop offset="0.1" stop-opacity="0.2"/>
<stop offset="0.3" stop-opacity="0.1"/>
<stop offset="0.6" stop-opacity="0.1"/>
<stop offset="1" stop-opacity="0"/>
</linearGradient>
<clipPath id="clip0_759_5247">
<rect width="48" height="45" fill="white" transform="translate(0.5)"/>
</clipPath>
</defs>
</svg>
