<svg width="49" height="48" viewBox="0 0 49 48" fill="none" xmlns="http://www.w3.org/2000/svg">
<g clip-path="url(#clip0_759_5234)">
<path fill-rule="evenodd" clip-rule="evenodd" d="M0.5 0H48.5V48H0.5V0ZM37.1935 40.2394C34.9688 40.2394 33.7109 39.079 32.744 37.5003L29.0785 39.6298C30.4027 42.2462 33.109 44.2424 37.2979 44.2424C41.5821 44.2424 44.7722 42.0177 44.7722 37.9567C44.7722 34.1898 42.6084 32.5144 38.776 30.871L37.6484 30.3879C35.7132 29.5498 34.8751 29.002 34.8751 27.6489C34.8751 26.554 35.7124 25.7159 37.0335 25.7159C38.3288 25.7159 39.1631 26.2622 39.9364 27.6489L43.4488 25.3937C41.9631 22.7803 39.9013 21.7822 37.0335 21.7822C33.0053 21.7822 30.4278 24.3575 30.4278 27.7403C30.4278 31.4127 32.5901 33.1498 35.845 34.5365L36.9726 35.0203C39.0297 35.9201 40.2564 36.4679 40.2564 38.0146C40.2564 39.3053 39.0625 40.2394 37.1935 40.2394ZM19.7131 40.2112C18.1634 40.2112 17.5189 39.1483 16.8103 37.8912L13.1387 40.114C14.2023 42.3651 16.2937 44.234 19.9051 44.234C23.9021 44.234 26.6404 42.1083 26.6404 37.4378V22.0397H22.1299V37.3769C22.1299 39.6314 21.1951 40.2112 19.7131 40.2112Z" fill="#797D94"/>
</g>
<defs>
<clipPath id="clip0_759_5234">
<rect width="48" height="48" fill="white" transform="translate(0.5)"/>
</clipPath>
</defs>
</svg>
