<svg width="70" height="58" viewBox="0 0 70 58" fill="none" xmlns="http://www.w3.org/2000/svg">
<g filter="url(#filter0_b_811_5261)">
<rect x="11" y="5" width="48" height="48" rx="8" fill="#454545" fill-opacity="0.35"/>
<rect x="10.6" y="4.6" width="48.8" height="48.8" rx="8.4" stroke="url(#paint0_linear_811_5261)" stroke-width="0.8" stroke-linecap="round" stroke-linejoin="round"/>
</g>
<g filter="url(#filter1_f_811_5261)">
<path fill-rule="evenodd" clip-rule="evenodd" d="M38.664 23.9616C39.0875 26.1611 37.6478 28.2876 35.4482 28.7112C33.2486 29.1348 31.1221 27.695 30.6986 25.4954C30.275 23.2958 31.7148 21.1694 33.9143 20.7458C36.1139 20.3222 38.2404 21.762 38.664 23.9616ZM27.8021 27.6955C28.4587 29.2806 27.706 31.0979 26.1208 31.7545C24.5357 32.4111 22.7185 31.6584 22.0619 30.0732C21.4053 28.4881 22.158 26.6709 23.7431 26.0143C25.3282 25.3577 27.1455 26.1104 27.8021 27.6955ZM20.1493 36.5674C20.7533 34.8588 22.3756 33.6162 24.2912 33.6162H25.5511C25.879 33.6162 26.1897 33.6507 26.5003 33.7197C25.9308 34.7552 25.6029 35.9461 25.5856 37.2059H20.6152C20.2873 37.2059 20.0457 36.878 20.1493 36.5674ZM45.001 33.6162H43.7412C43.4305 33.6162 43.1371 33.6508 42.8438 33.7025C43.4133 34.7553 43.7412 35.9461 43.7584 37.206H48.6598C49.005 37.206 49.2293 36.8608 49.1258 36.5502C48.539 34.8416 46.9167 33.6162 45.001 33.6162ZM47.4864 28.8878C47.4864 30.6034 46.0956 31.9943 44.3799 31.9943C42.6643 31.9943 41.2734 30.6034 41.2734 28.8878C41.2734 27.1721 42.6643 25.7813 44.3799 25.7813C46.0956 25.7813 47.4864 27.1721 47.4864 28.8878ZM41.4116 34.2898C41.2908 34.0827 41.1527 33.8756 41.0147 33.6857C40.8593 33.4786 40.6868 33.2715 40.4969 33.0817C39.3924 31.9599 37.8737 31.2696 36.1651 31.2696H33.1967C31.4881 31.2696 29.9521 31.9772 28.8476 33.1162C28.6577 33.306 28.4851 33.5131 28.3298 33.7375C28.1917 33.9273 28.0709 34.1172 27.9501 34.3243C27.4496 35.1872 27.1735 36.1709 27.1562 37.2237V37.3445V37.5171C27.1562 37.7932 27.3806 38.0003 27.6395 38.0003H30.7115H31.4881H37.8391H38.6158H41.7395C42.0156 38.0003 42.2227 37.7759 42.2227 37.5171V37.3445V37.2237C42.2055 36.1537 41.9121 35.1527 41.4116 34.2898Z" fill="url(#paint1_linear_811_5261)" fill-opacity="0.3"/>
</g>
<g filter="url(#filter2_d_811_5261)">
<mask id="path-4-inside-1_811_5261" fill="white">
<path fill-rule="evenodd" clip-rule="evenodd" d="M38.9781 23.5449C39.4345 25.9151 37.883 28.2065 35.5128 28.6629C33.1426 29.1193 30.8512 27.5679 30.3948 25.1977C29.9384 22.8275 31.4898 20.5361 33.86 20.0797C36.2302 19.6232 38.5216 21.1747 38.9781 23.5449ZM27.2732 27.5689C27.9807 29.2769 27.1696 31.2351 25.4615 31.9427C23.7534 32.6502 21.7952 31.8391 21.0877 30.131C20.3802 28.4229 21.1913 26.4647 22.8994 25.7572C24.6074 25.0497 26.5656 25.8608 27.2732 27.5689ZM19.0261 37.1285C19.677 35.2874 21.4252 33.9484 23.4894 33.9484H24.847C25.2003 33.9484 25.5351 33.9856 25.8698 34.06C25.2561 35.1758 24.9028 36.459 24.8842 37.8166H19.5283C19.1749 37.8166 18.9146 37.4632 19.0261 37.1285ZM45.8051 33.9482H44.4475C44.1128 33.9482 43.7966 33.9854 43.4805 34.0412C44.0942 35.1756 44.4475 36.4588 44.4661 37.8164H49.7477C50.1196 37.8164 50.3614 37.4445 50.2498 37.1097C49.6175 35.2686 47.8694 33.9482 45.8051 33.9482ZM48.484 28.8523C48.484 30.7011 46.9853 32.1998 45.1365 32.1998C43.2878 32.1998 41.7891 30.7011 41.7891 28.8523C41.7891 27.0036 43.2878 25.5049 45.1365 25.5049C46.9853 25.5049 48.484 27.0036 48.484 28.8523ZM41.9373 34.6734C41.8071 34.4503 41.6584 34.2271 41.5096 34.0225C41.3422 33.7994 41.1562 33.5762 40.9517 33.3716C39.7615 32.1628 38.1249 31.4189 36.2838 31.4189H33.0851C31.244 31.4189 29.5889 32.1814 28.3987 33.4088C28.1941 33.6134 28.0081 33.8366 27.8408 34.0783C27.692 34.2829 27.5618 34.4875 27.4316 34.7106C26.8923 35.6405 26.5948 36.7005 26.5762 37.8349V37.9651V38.1511C26.5762 38.4486 26.8179 38.6718 27.0969 38.6718H30.4072H31.244H38.0877H38.9246H42.2907C42.5882 38.6718 42.8114 38.43 42.8114 38.1511V37.9651V37.8349C42.7928 36.6819 42.4766 35.6033 41.9373 34.6734Z"/>
</mask>
<path fill-rule="evenodd" clip-rule="evenodd" d="M38.9781 23.5449C39.4345 25.9151 37.883 28.2065 35.5128 28.6629C33.1426 29.1193 30.8512 27.5679 30.3948 25.1977C29.9384 22.8275 31.4898 20.5361 33.86 20.0797C36.2302 19.6232 38.5216 21.1747 38.9781 23.5449ZM27.2732 27.5689C27.9807 29.2769 27.1696 31.2351 25.4615 31.9427C23.7534 32.6502 21.7952 31.8391 21.0877 30.131C20.3802 28.4229 21.1913 26.4647 22.8994 25.7572C24.6074 25.0497 26.5656 25.8608 27.2732 27.5689ZM19.0261 37.1285C19.677 35.2874 21.4252 33.9484 23.4894 33.9484H24.847C25.2003 33.9484 25.5351 33.9856 25.8698 34.06C25.2561 35.1758 24.9028 36.459 24.8842 37.8166H19.5283C19.1749 37.8166 18.9146 37.4632 19.0261 37.1285ZM45.8051 33.9482H44.4475C44.1128 33.9482 43.7966 33.9854 43.4805 34.0412C44.0942 35.1756 44.4475 36.4588 44.4661 37.8164H49.7477C50.1196 37.8164 50.3614 37.4445 50.2498 37.1097C49.6175 35.2686 47.8694 33.9482 45.8051 33.9482ZM48.484 28.8523C48.484 30.7011 46.9853 32.1998 45.1365 32.1998C43.2878 32.1998 41.7891 30.7011 41.7891 28.8523C41.7891 27.0036 43.2878 25.5049 45.1365 25.5049C46.9853 25.5049 48.484 27.0036 48.484 28.8523ZM41.9373 34.6734C41.8071 34.4503 41.6584 34.2271 41.5096 34.0225C41.3422 33.7994 41.1562 33.5762 40.9517 33.3716C39.7615 32.1628 38.1249 31.4189 36.2838 31.4189H33.0851C31.244 31.4189 29.5889 32.1814 28.3987 33.4088C28.1941 33.6134 28.0081 33.8366 27.8408 34.0783C27.692 34.2829 27.5618 34.4875 27.4316 34.7106C26.8923 35.6405 26.5948 36.7005 26.5762 37.8349V37.9651V38.1511C26.5762 38.4486 26.8179 38.6718 27.0969 38.6718H30.4072H31.244H38.0877H38.9246H42.2907C42.5882 38.6718 42.8114 38.43 42.8114 38.1511V37.9651V37.8349C42.7928 36.6819 42.4766 35.6033 41.9373 34.6734Z" fill="url(#paint2_linear_811_5261)"/>
<path d="M35.5128 28.6629L35.4183 28.1719V28.1719L35.5128 28.6629ZM38.9781 23.5449L39.469 23.4503L38.9781 23.5449ZM30.3948 25.1977L29.9038 25.2923L29.9038 25.2923L30.3948 25.1977ZM33.86 20.0797L33.7654 19.5887L33.86 20.0797ZM25.4615 31.9427L25.2702 31.4807V31.4807L25.4615 31.9427ZM27.2732 27.5689L26.8112 27.7602L27.2732 27.5689ZM21.0877 30.131L20.6258 30.3223H20.6258L21.0877 30.131ZM19.0261 37.1285L18.5547 36.9618L18.5518 36.9704L19.0261 37.1285ZM25.8698 34.06L26.308 34.3009L26.6294 33.7165L25.9783 33.5719L25.8698 34.06ZM24.8842 37.8166V38.3166H25.3774L25.3842 37.8234L24.8842 37.8166ZM43.4805 34.0412L43.3936 33.5488L42.7108 33.6693L43.0407 34.2791L43.4805 34.0412ZM44.4661 37.8164L43.9662 37.8233L43.9729 38.3164H44.4661V37.8164ZM50.2498 37.1097L50.7241 36.9516L50.7227 36.9473L50.2498 37.1097ZM41.5096 34.0225L41.914 33.7284L41.9096 33.7225L41.5096 34.0225ZM41.9373 34.6734L42.3698 34.4226L42.3692 34.4215L41.9373 34.6734ZM40.9517 33.3716L40.5954 33.7224L40.5981 33.7252L40.9517 33.3716ZM28.3987 33.4088L28.7523 33.7624L28.7576 33.7569L28.3987 33.4088ZM27.8408 34.0783L28.2452 34.3725L28.2519 34.3629L27.8408 34.0783ZM27.4316 34.7106L26.9997 34.4587L26.9991 34.4598L27.4316 34.7106ZM26.5762 37.8349L26.0762 37.8267V37.8349H26.5762ZM42.8114 37.8349H43.3114L43.3113 37.8269L42.8114 37.8349ZM35.6074 29.1539C38.2488 28.6453 39.9777 26.0917 39.469 23.4503L38.4871 23.6394C38.8913 25.7385 37.5173 27.7677 35.4183 28.1719L35.6074 29.1539ZM29.9038 25.2923C30.4124 27.9336 32.966 29.6625 35.6074 29.1539L35.4183 28.1719C33.3193 28.5762 31.29 27.2022 30.8858 25.1032L29.9038 25.2923ZM33.7654 19.5887C31.1241 20.0973 29.3952 22.6509 29.9038 25.2923L30.8858 25.1032C30.4816 23.0041 31.8555 20.9748 33.9545 20.5706L33.7654 19.5887ZM39.469 23.4503C38.9604 20.809 36.4068 19.08 33.7654 19.5887L33.9545 20.5706C36.0536 20.1664 38.0829 21.5404 38.4871 23.6394L39.469 23.4503ZM25.6529 32.4046C27.616 31.5914 28.5483 29.3407 27.7351 27.3775L26.8112 27.7602C27.4131 29.2131 26.7231 30.8789 25.2702 31.4807L25.6529 32.4046ZM20.6258 30.3223C21.439 32.2855 23.6897 33.2178 25.6529 32.4046L25.2702 31.4807C23.8172 32.0826 22.1515 31.3926 21.5497 29.9397L20.6258 30.3223ZM22.708 25.2953C20.7448 26.1085 19.8126 28.3592 20.6258 30.3223L21.5497 29.9397C20.9478 28.4867 21.6378 26.821 23.0907 26.2191L22.708 25.2953ZM27.7351 27.3775C26.9219 25.4143 24.6712 24.4821 22.708 25.2953L23.0907 26.2191C24.5436 25.6173 26.2094 26.3073 26.8112 27.7602L27.7351 27.3775ZM23.4894 33.4484C21.2024 33.4484 19.2725 34.9314 18.5547 36.9618L19.4975 37.2951C20.0815 35.6433 21.648 34.4484 23.4894 34.4484V33.4484ZM24.847 33.4484H23.4894V34.4484H24.847V33.4484ZM25.9783 33.5719C25.6078 33.4895 25.2367 33.4484 24.847 33.4484V34.4484C25.164 34.4484 25.4624 34.4816 25.7614 34.5481L25.9783 33.5719ZM25.3842 37.8234C25.4016 36.5487 25.7333 35.3458 26.308 34.3009L25.4317 33.819C24.779 35.0058 24.404 36.3692 24.3842 37.8097L25.3842 37.8234ZM19.5283 38.3166H24.8842V37.3166H19.5283V38.3166ZM18.5518 36.9704C18.3296 37.6369 18.8422 38.3166 19.5283 38.3166V37.3166C19.5246 37.3166 19.5221 37.3159 19.5192 37.3144C19.5155 37.3124 19.5106 37.3085 19.5063 37.3027C19.502 37.2968 19.5005 37.292 19.5001 37.2898C19.4999 37.2887 19.4999 37.2884 19.5005 37.2866L18.5518 36.9704ZM44.4475 34.4482H45.8051V33.4482H44.4475V34.4482ZM43.5674 34.5336C43.8646 34.4812 44.1504 34.4482 44.4475 34.4482V33.4482C44.0751 33.4482 43.7286 33.4897 43.3936 33.5488L43.5674 34.5336ZM44.9661 37.8096C44.9463 36.3685 44.5711 35.0063 43.9202 33.8033L43.0407 34.2791C43.6173 35.3449 43.9487 36.5491 43.9662 37.8233L44.9661 37.8096ZM49.7477 37.3164H44.4661V38.3164H49.7477V37.3164ZM49.7754 37.2678C49.7784 37.2766 49.7782 37.2906 49.7684 37.3047C49.7642 37.3108 49.7603 37.3136 49.7586 37.3145C49.7579 37.3149 49.7555 37.3164 49.7477 37.3164V38.3164C50.4844 38.3164 50.9361 37.5875 50.7241 36.9516L49.7754 37.2678ZM45.8051 34.4482C47.6505 34.4482 49.2122 35.628 49.7769 37.2721L50.7227 36.9473C50.0227 34.9093 48.0882 33.4482 45.8051 33.4482V34.4482ZM45.1365 32.6998C47.2614 32.6998 48.984 30.9772 48.984 28.8523H47.984C47.984 30.425 46.7091 31.6998 45.1365 31.6998V32.6998ZM41.2891 28.8523C41.2891 30.9772 43.0116 32.6998 45.1365 32.6998V31.6998C43.5639 31.6998 42.2891 30.425 42.2891 28.8523H41.2891ZM45.1365 25.0049C43.0116 25.0049 41.2891 26.7275 41.2891 28.8523H42.2891C42.2891 27.2797 43.5639 26.0049 45.1365 26.0049V25.0049ZM48.984 28.8523C48.984 26.7275 47.2614 25.0049 45.1365 25.0049V26.0049C46.7091 26.0049 47.984 27.2797 47.984 28.8523H48.984ZM41.1052 34.3166C41.246 34.5102 41.3852 34.7193 41.5054 34.9254L42.3692 34.4215C42.2291 34.1813 42.0707 33.944 41.9139 33.7284L41.1052 34.3166ZM40.5981 33.7252C40.7818 33.9089 40.9524 34.113 41.1096 34.3225L41.9096 33.7225C41.732 33.4858 41.5306 33.2435 41.3052 33.0181L40.5981 33.7252ZM36.2838 31.9189C37.9855 31.9189 39.4953 32.6051 40.5954 33.7224L41.308 33.0208C40.0277 31.7205 38.2643 30.9189 36.2838 30.9189V31.9189ZM33.0851 31.9189H36.2838V30.9189H33.0851V31.9189ZM28.7576 33.7569C29.8583 32.6218 31.3858 31.9189 33.0851 31.9189V30.9189C31.1022 30.9189 29.3195 31.741 28.0397 33.0608L28.7576 33.7569ZM28.2519 34.3629C28.4024 34.1454 28.5692 33.9454 28.7522 33.7624L28.0451 33.0553C27.819 33.2814 27.6138 33.5277 27.4297 33.7937L28.2519 34.3629ZM27.8635 34.9626C27.9874 34.7502 28.1084 34.5604 28.2451 34.3724L27.4364 33.7842C27.2755 34.0054 27.1363 34.2247 26.9997 34.4587L27.8635 34.9626ZM27.0761 37.8431C27.0933 36.7926 27.3684 35.8163 27.8642 34.9615L26.9991 34.4598C26.4163 35.4647 26.0962 36.6084 26.0762 37.8267L27.0761 37.8431ZM27.0762 37.9651V37.8349H26.0762V37.9651H27.0762ZM27.0762 38.1511V37.9651H26.0762V38.1511H27.0762ZM27.0969 38.1718C27.0916 38.1718 27.0857 38.1697 27.0811 38.1651C27.0791 38.1632 27.0781 38.1615 27.0775 38.1602C27.0772 38.1594 27.0762 38.1569 27.0762 38.1511H26.0762C26.0762 38.7363 26.5535 39.1718 27.0969 39.1718V38.1718ZM30.4072 38.1718H27.0969V39.1718H30.4072V38.1718ZM31.244 38.1718H30.4072V39.1718H31.244V38.1718ZM38.0877 38.1718H31.244V39.1718H38.0877V38.1718ZM38.9246 38.1718H38.0877V39.1718H38.9246V38.1718ZM42.2907 38.1718H38.9246V39.1718H42.2907V38.1718ZM42.3114 38.1511C42.3114 38.1563 42.3092 38.1622 42.3047 38.1669C42.3028 38.1689 42.301 38.1699 42.2998 38.1704C42.299 38.1707 42.2965 38.1718 42.2907 38.1718V39.1718C42.8759 39.1718 43.3114 38.6945 43.3114 38.1511H42.3114ZM42.3114 37.9651V38.1511H43.3114V37.9651H42.3114ZM42.3114 37.8349V37.9651H43.3114V37.8349H42.3114ZM41.5048 34.9243C42.0023 35.782 42.2942 36.7772 42.3114 37.843L43.3113 37.8269C43.2913 36.5866 42.951 35.4246 42.3698 34.4226L41.5048 34.9243Z" fill="url(#paint3_linear_811_5261)" mask="url(#path-4-inside-1_811_5261)"/>
</g>
<defs>
<filter id="filter0_b_811_5261" x="-19.8008" y="-25.7998" width="109.602" height="109.6" filterUnits="userSpaceOnUse" color-interpolation-filters="sRGB">
<feFlood flood-opacity="0" result="BackgroundImageFix"/>
<feGaussianBlur in="BackgroundImageFix" stdDeviation="15"/>
<feComposite in2="SourceAlpha" operator="in" result="effect1_backgroundBlur_811_5261"/>
<feBlend mode="normal" in="SourceGraphic" in2="effect1_backgroundBlur_811_5261" result="shape"/>
</filter>
<filter id="filter1_f_811_5261" x="0.125" y="0.671875" width="69.0254" height="57.3281" filterUnits="userSpaceOnUse" color-interpolation-filters="sRGB">
<feFlood flood-opacity="0" result="BackgroundImageFix"/>
<feBlend mode="normal" in="SourceGraphic" in2="BackgroundImageFix" result="shape"/>
<feGaussianBlur stdDeviation="10" result="effect1_foregroundBlur_811_5261"/>
</filter>
<filter id="filter2_d_811_5261" x="13" y="20" width="43.2773" height="30.6719" filterUnits="userSpaceOnUse" color-interpolation-filters="sRGB">
<feFlood flood-opacity="0" result="BackgroundImageFix"/>
<feColorMatrix in="SourceAlpha" type="matrix" values="0 0 0 0 0 0 0 0 0 0 0 0 0 0 0 0 0 0 127 0" result="hardAlpha"/>
<feOffset dy="6"/>
<feGaussianBlur stdDeviation="3"/>
<feComposite in2="hardAlpha" operator="out"/>
<feColorMatrix type="matrix" values="0 0 0 0 0 0 0 0 0 0 0 0 0 0 0 0 0 0 0.25 0"/>
<feBlend mode="normal" in2="BackgroundImageFix" result="effect1_dropShadow_811_5261"/>
<feBlend mode="normal" in="SourceGraphic" in2="effect1_dropShadow_811_5261" result="shape"/>
</filter>
<linearGradient id="paint0_linear_811_5261" x1="31.4647" y1="3.17484" x2="31.4647" y2="53.519" gradientUnits="userSpaceOnUse">
<stop stop-color="white" stop-opacity="0.55"/>
<stop offset="1" stop-color="white" stop-opacity="0"/>
</linearGradient>
<linearGradient id="paint1_linear_811_5261" x1="33.1171" y1="40.6247" x2="47.3126" y2="24.6044" gradientUnits="userSpaceOnUse">
<stop stop-color="#F4A897"/>
<stop offset="0.499653" stop-color="#E7D08A"/>
<stop offset="1" stop-color="#C6E994"/>
</linearGradient>
<linearGradient id="paint2_linear_811_5261" x1="32.9997" y1="41.4997" x2="48.2956" y2="24.2371" gradientUnits="userSpaceOnUse">
<stop stop-color="#F4A897"/>
<stop offset="0.499653" stop-color="#E7D08A"/>
<stop offset="1" stop-color="#E9D694"/>
</linearGradient>
<linearGradient id="paint3_linear_811_5261" x1="34.6386" y1="20" x2="34.6386" y2="38.6718" gradientUnits="userSpaceOnUse">
<stop stop-color="white"/>
<stop offset="1" stop-color="white" stop-opacity="0"/>
</linearGradient>
</defs>
</svg>
