<svg width="62" height="63" viewBox="0 0 62 63" fill="none" xmlns="http://www.w3.org/2000/svg">
<g filter="url(#filter0_b_811_4421)">
<rect x="7" y="7" width="48" height="48" rx="8" fill="#454545" fill-opacity="0.35"/>
<rect x="6.6" y="6.6" width="48.8" height="48.8" rx="8.4" stroke="url(#paint0_linear_811_4421)" stroke-width="0.8" stroke-linecap="round" stroke-linejoin="round"/>
</g>
<g opacity="0.6" filter="url(#filter1_f_811_4421)">
<path d="M41.8 29.6V25.1C41.8 24.5 41.3 24 40.7 24H36.2C36.2 23.8 36.3 23.7 36.3 23.5C36.3 21.6 34.7 20 32.8 20C30.9 20 29.3 21.6 29.3 23.5C29.3 23.7 29.3 23.8 29.4 24H24.8C24.2 24 23.7 24.5 23.7 25.1V29.6C23.6 29.6 23.6 29.6 23.5 29.6C21.6 29.6 20 31.1 20 33.1C20 35 21.6 36.6 23.5 36.6C23.6 36.6 23.6 36.6 23.7 36.6V41C23.7 41.6 24.2 42.1 24.8 42.1H29.3C29.3 41.9 29.3 41.8 29.3 41.6C29.3 39.7 30.9 38.1 32.8 38.1C34.7 38.1 36.3 39.7 36.3 41.6C36.3 41.8 36.3 41.9 36.3 42.1H40.8C41.4 42.1 41.9 41.6 41.9 41V36.5C40.1 36.4 38.7 34.9 38.7 33C38.7 31.1 40 29.7 41.8 29.6Z" fill="url(#paint1_linear_811_4421)" fill-opacity="0.15"/>
<path d="M35.95 24.25V24C35.95 23.8592 35.9859 23.7518 36.0108 23.6769L36.0128 23.6709C36.0378 23.596 36.05 23.5554 36.05 23.5C36.05 21.7381 34.5619 20.25 32.8 20.25C31.0381 20.25 29.55 21.7381 29.55 23.5C29.55 23.6049 29.5506 23.6582 29.5591 23.7089C29.5665 23.7534 29.5817 23.8044 29.6236 23.8882L29.8045 24.25H29.4H24.8C24.3381 24.25 23.95 24.6381 23.95 25.1V29.6V29.85H23.7H23.6994H23.6988H23.6983H23.6977H23.6971H23.6965H23.696H23.6954H23.6948H23.6943H23.6937H23.6931H23.6926H23.692H23.6915H23.6909H23.6904H23.6898H23.6893H23.6887H23.6882H23.6876H23.6871H23.6866H23.686H23.6855H23.685H23.6845H23.6839H23.6834H23.6829H23.6824H23.6819H23.6813H23.6808H23.6803H23.6798H23.6793H23.6788H23.6783H23.6778H23.6773H23.6768H23.6763H23.6758H23.6753H23.6748H23.6743H23.6739H23.6734H23.6729H23.6724H23.6719H23.6715H23.671H23.6705H23.67H23.6696H23.6691H23.6686H23.6682H23.6677H23.6673H23.6668H23.6663H23.6659H23.6654H23.665H23.6645H23.6641H23.6636H23.6632H23.6627H23.6623H23.6619H23.6614H23.661H23.6606H23.6601H23.6597H23.6593H23.6588H23.6584H23.658H23.6575H23.6571H23.6567H23.6563H23.6559H23.6554H23.655H23.6546H23.6542H23.6538H23.6534H23.653H23.6526H23.6522H23.6518H23.6514H23.651H23.6506H23.6502H23.6498H23.6494H23.649H23.6486H23.6482H23.6478H23.6474H23.647H23.6466H23.6463H23.6459H23.6455H23.6451H23.6447H23.6443H23.644H23.6436H23.6432H23.6428H23.6425H23.6421H23.6417H23.6414H23.641H23.6406H23.6403H23.6399H23.6395H23.6392H23.6388H23.6384H23.6381H23.6377H23.6374H23.637H23.6367H23.6363H23.636H23.6356H23.6353H23.6349H23.6346H23.6342H23.6339H23.6335H23.6332H23.6328H23.6325H23.6321H23.6318H23.6315H23.6311H23.6308H23.6304H23.6301H23.6298H23.6294H23.6291H23.6288H23.6284H23.6281H23.6278H23.6275H23.6271H23.6268H23.6265H23.6261H23.6258H23.6255H23.6252H23.6248H23.6245H23.6242H23.6239H23.6236H23.6232H23.6229H23.6226H23.6223H23.622H23.6216H23.6213H23.621H23.6207H23.6204H23.6201H23.6198H23.6195H23.6191H23.6188H23.6185H23.6182H23.6179H23.6176H23.6173H23.617H23.6167H23.6164H23.6161H23.6157H23.6154H23.6151H23.6148H23.6145H23.6142H23.6139H23.6136H23.6133H23.613H23.6127H23.6124H23.6121H23.6118H23.6115H23.6112H23.6109H23.6106H23.6103H23.61H23.6097H23.6094H23.6091H23.6088H23.6085H23.6082H23.6079H23.6076H23.6073H23.6071H23.6068H23.6065H23.6062H23.6059H23.6056H23.6053H23.605H23.6047H23.6044H23.6041H23.6038H23.6035H23.6032H23.6029H23.6026H23.6023H23.6021H23.6018H23.6015H23.6012H23.6009H23.6006H23.6003H23.6H23.5997H23.5994H23.5991H23.5988H23.5985H23.5982H23.5979H23.5977H23.5974H23.5971H23.5968H23.5965H23.5962H23.5959H23.5956H23.5953H23.595H23.5947H23.5944H23.5941H23.5938H23.5935H23.5932H23.5929H23.5927H23.5924H23.5921H23.5918H23.5915H23.5912H23.5909H23.5906H23.5903H23.59H23.5897H23.5894H23.5891H23.5888H23.5885H23.5882H23.5879H23.5876H23.5873H23.587H23.5867H23.5864H23.5861H23.5858H23.5855H23.5852H23.5849H23.5846H23.5843H23.5839H23.5836H23.5833H23.583H23.5827H23.5824H23.5821H23.5818H23.5815H23.5812H23.5809H23.5805H23.5802H23.5799H23.5796H23.5793H23.579H23.5787H23.5784H23.578H23.5777H23.5774H23.5771H23.5768H23.5764H23.5761H23.5758H23.5755H23.5752H23.5748H23.5745H23.5742H23.5739H23.5735H23.5732H23.5729H23.5725H23.5722H23.5719H23.5716H23.5712H23.5709H23.5706H23.5702H23.5699H23.5696H23.5692H23.5689H23.5685H23.5682H23.5679H23.5675H23.5672H23.5668H23.5665H23.5661H23.5658H23.5654H23.5651H23.5647H23.5644H23.564H23.5637H23.5633H23.563H23.5626H23.5623H23.5619H23.5616H23.5612H23.5608H23.5605H23.5601H23.5597H23.5594H23.559H23.5586H23.5583H23.5579H23.5575H23.5572H23.5568H23.5564H23.556H23.5557H23.5553H23.5549H23.5545H23.5541H23.5537H23.5534H23.553H23.5526H23.5522H23.5518H23.5514H23.551H23.5506H23.5502H23.5498H23.5494H23.549H23.5486H23.5482H23.5478H23.5474H23.547H23.5466H23.5462H23.5458H23.5454H23.545H23.5446H23.5441H23.5437H23.5433H23.5429H23.5425H23.542H23.5416H23.5412H23.5407H23.5403H23.5399H23.5394H23.539H23.5386H23.5381H23.5377H23.5373H23.5368H23.5364H23.5359H23.5355H23.535H23.5346H23.5341H23.5337H23.5332H23.5327H23.5323H23.5318H23.5314H23.5309H23.5304H23.53H23.5295H23.529H23.5285H23.5281H23.5276H23.5271H23.5266H23.5261H23.5257H23.5252H23.5247H23.5242H23.5237H23.5232H23.5227H23.5222H23.5217H23.5212H23.5207H23.5202H23.5197H23.5192H23.5187H23.5181H23.5176H23.5171H23.5166H23.5161H23.5155H23.515H23.5145H23.514H23.5134H23.5129H23.5124H23.5118H23.5113H23.5107H23.5102H23.5096H23.5091H23.5085H23.508H23.5074H23.5069H23.5063H23.5057H23.5052H23.5046H23.504H23.5035H23.5029H23.5023H23.5017H23.5012H23.5006H23.5C21.7334 29.85 20.25 31.2427 20.25 33.1C20.25 34.8619 21.7381 36.35 23.5 36.35H23.5006H23.5012H23.5017H23.5023H23.5029H23.5035H23.504H23.5046H23.5052H23.5057H23.5063H23.5069H23.5074H23.508H23.5085H23.5091H23.5096H23.5102H23.5107H23.5113H23.5118H23.5124H23.5129H23.5134H23.514H23.5145H23.515H23.5155H23.5161H23.5166H23.5171H23.5176H23.5181H23.5187H23.5192H23.5197H23.5202H23.5207H23.5212H23.5217H23.5222H23.5227H23.5232H23.5237H23.5242H23.5247H23.5252H23.5257H23.5261H23.5266H23.5271H23.5276H23.5281H23.5285H23.529H23.5295H23.53H23.5304H23.5309H23.5314H23.5318H23.5323H23.5327H23.5332H23.5337H23.5341H23.5346H23.535H23.5355H23.5359H23.5364H23.5368H23.5373H23.5377H23.5381H23.5386H23.539H23.5394H23.5399H23.5403H23.5407H23.5412H23.5416H23.542H23.5425H23.5429H23.5433H23.5437H23.5441H23.5446H23.545H23.5454H23.5458H23.5462H23.5466H23.547H23.5474H23.5478H23.5482H23.5486H23.549H23.5494H23.5498H23.5502H23.5506H23.551H23.5514H23.5518H23.5522H23.5526H23.553H23.5534H23.5537H23.5541H23.5545H23.5549H23.5553H23.5557H23.556H23.5564H23.5568H23.5572H23.5575H23.5579H23.5583H23.5586H23.559H23.5594H23.5597H23.5601H23.5605H23.5608H23.5612H23.5616H23.5619H23.5623H23.5626H23.563H23.5633H23.5637H23.564H23.5644H23.5647H23.5651H23.5654H23.5658H23.5661H23.5665H23.5668H23.5672H23.5675H23.5679H23.5682H23.5685H23.5689H23.5692H23.5696H23.5699H23.5702H23.5706H23.5709H23.5712H23.5716H23.5719H23.5722H23.5725H23.5729H23.5732H23.5735H23.5739H23.5742H23.5745H23.5748H23.5752H23.5755H23.5758H23.5761H23.5764H23.5768H23.5771H23.5774H23.5777H23.578H23.5784H23.5787H23.579H23.5793H23.5796H23.5799H23.5802H23.5805H23.5809H23.5812H23.5815H23.5818H23.5821H23.5824H23.5827H23.583H23.5833H23.5836H23.5839H23.5843H23.5846H23.5849H23.5852H23.5855H23.5858H23.5861H23.5864H23.5867H23.587H23.5873H23.5876H23.5879H23.5882H23.5885H23.5888H23.5891H23.5894H23.5897H23.59H23.5903H23.5906H23.5909H23.5912H23.5915H23.5918H23.5921H23.5924H23.5927H23.5929H23.5932H23.5935H23.5938H23.5941H23.5944H23.5947H23.595H23.5953H23.5956H23.5959H23.5962H23.5965H23.5968H23.5971H23.5974H23.5977H23.5979H23.5982H23.5985H23.5988H23.5991H23.5994H23.5997H23.6H23.6003H23.6006H23.6009H23.6012H23.6015H23.6018H23.6021H23.6023H23.6026H23.6029H23.6032H23.6035H23.6038H23.6041H23.6044H23.6047H23.605H23.6053H23.6056H23.6059H23.6062H23.6065H23.6068H23.6071H23.6073H23.6076H23.6079H23.6082H23.6085H23.6088H23.6091H23.6094H23.6097H23.61H23.6103H23.6106H23.6109H23.6112H23.6115H23.6118H23.6121H23.6124H23.6127H23.613H23.6133H23.6136H23.6139H23.6142H23.6145H23.6148H23.6151H23.6154H23.6157H23.6161H23.6164H23.6167H23.617H23.6173H23.6176H23.6179H23.6182H23.6185H23.6188H23.6191H23.6195H23.6198H23.6201H23.6204H23.6207H23.621H23.6213H23.6216H23.622H23.6223H23.6226H23.6229H23.6232H23.6236H23.6239H23.6242H23.6245H23.6248H23.6252H23.6255H23.6258H23.6261H23.6265H23.6268H23.6271H23.6275H23.6278H23.6281H23.6284H23.6288H23.6291H23.6294H23.6298H23.6301H23.6304H23.6308H23.6311H23.6315H23.6318H23.6321H23.6325H23.6328H23.6332H23.6335H23.6339H23.6342H23.6346H23.6349H23.6353H23.6356H23.636H23.6363H23.6367H23.637H23.6374H23.6377H23.6381H23.6384H23.6388H23.6392H23.6395H23.6399H23.6403H23.6406H23.641H23.6414H23.6417H23.6421H23.6425H23.6428H23.6432H23.6436H23.644H23.6443H23.6447H23.6451H23.6455H23.6459H23.6463H23.6466H23.647H23.6474H23.6478H23.6482H23.6486H23.649H23.6494H23.6498H23.6502H23.6506H23.651H23.6514H23.6518H23.6522H23.6526H23.653H23.6534H23.6538H23.6542H23.6546H23.655H23.6554H23.6559H23.6563H23.6567H23.6571H23.6575H23.658H23.6584H23.6588H23.6593H23.6597H23.6601H23.6606H23.661H23.6614H23.6619H23.6623H23.6627H23.6632H23.6636H23.6641H23.6645H23.665H23.6654H23.6659H23.6663H23.6668H23.6673H23.6677H23.6682H23.6686H23.6691H23.6696H23.67H23.6705H23.671H23.6715H23.6719H23.6724H23.6729H23.6734H23.6739H23.6743H23.6748H23.6753H23.6758H23.6763H23.6768H23.6773H23.6778H23.6783H23.6788H23.6793H23.6798H23.6803H23.6808H23.6813H23.6819H23.6824H23.6829H23.6834H23.6839H23.6845H23.685H23.6855H23.686H23.6866H23.6871H23.6876H23.6882H23.6887H23.6893H23.6898H23.6904H23.6909H23.6915H23.692H23.6926H23.6931H23.6937H23.6943H23.6948H23.6954H23.696H23.6965H23.6971H23.6977H23.6983H23.6988H23.6994H23.7H23.95V36.6V41C23.95 41.4619 24.3381 41.85 24.8 41.85H29.05V41.8491V41.8482V41.8474V41.8465V41.8456V41.8447V41.8438V41.843V41.8421V41.8412V41.8403V41.8395V41.8386V41.8377V41.8368V41.8359V41.8351V41.8342V41.8333V41.8324V41.8315V41.8306V41.8298V41.8289V41.828V41.8271V41.8262V41.8254V41.8245V41.8236V41.8227V41.8218V41.8209V41.8201V41.8192V41.8183V41.8174V41.8165V41.8156V41.8147V41.8139V41.813V41.8121V41.8112V41.8103V41.8094V41.8085V41.8076V41.8068V41.8059V41.805V41.8041V41.8032V41.8023V41.8014V41.8005V41.7996V41.7987V41.7978V41.7969V41.796V41.7952V41.7943V41.7934V41.7925V41.7916V41.7907V41.7898V41.7889V41.788V41.7871V41.7862V41.7853V41.7844V41.7835V41.7825V41.7816V41.7807V41.7798V41.7789V41.778V41.7771V41.7762V41.7753V41.7744V41.7735V41.7726V41.7716V41.7707V41.7698V41.7689V41.768V41.7671V41.7661V41.7652V41.7643V41.7634V41.7625V41.7615V41.7606V41.7597V41.7588V41.7578V41.7569V41.756V41.7551V41.7541V41.7532V41.7523V41.7513V41.7504V41.7495V41.7485V41.7476V41.7467V41.7457V41.7448V41.7438V41.7429V41.742V41.741V41.7401V41.7391V41.7382V41.7372V41.7363V41.7353V41.7344V41.7334V41.7325V41.7315V41.7306V41.7296V41.7286V41.7277V41.7267V41.7258V41.7248V41.7238V41.7229V41.7219V41.7209V41.72V41.719V41.718V41.717V41.7161V41.7151V41.7141V41.7131V41.7122V41.7112V41.7102V41.7092V41.7082V41.7072V41.7062V41.7053V41.7043V41.7033V41.7023V41.7013V41.7003V41.6993V41.6983V41.6973V41.6963V41.6953V41.6943V41.6933V41.6923V41.6912V41.6902V41.6892V41.6882V41.6872V41.6862V41.6852V41.6841V41.6831V41.6821V41.6811V41.68V41.679V41.678V41.6769V41.6759V41.6749V41.6738V41.6728V41.6717V41.6707V41.6697V41.6686V41.6676V41.6665V41.6655V41.6644V41.6634V41.6623V41.6612V41.6602V41.6591V41.6581V41.657V41.6559V41.6549V41.6538V41.6527V41.6516V41.6506V41.6495V41.6484V41.6473V41.6462V41.6451V41.6441V41.643V41.6419V41.6408V41.6397V41.6386V41.6375V41.6364V41.6353V41.6342V41.6331V41.6319V41.6308V41.6297V41.6286V41.6275V41.6264V41.6252V41.6241V41.623V41.6219V41.6207V41.6196V41.6185V41.6173V41.6162V41.615V41.6139V41.6128V41.6116V41.6105V41.6093V41.6081V41.607V41.6058V41.6047V41.6035V41.6023V41.6012V41.6C29.05 39.5619 30.7619 37.85 32.8 37.85C34.8381 37.85 36.55 39.5619 36.55 41.6L35.95 24.25ZM35.95 24.25H36.2M35.95 24.25H36.2M36.2 24.25H40.7C41.1619 24.25 41.55 24.6381 41.55 25.1V29.6M36.2 24.25L41.55 29.6M41.55 29.6H41.8H41.55ZM36.55 41.8491V41.85V41.8491ZM36.55 41.8491V41.8482M36.55 41.8491V41.8482M36.55 41.8482V41.8474M36.55 41.8482V41.8474M36.55 41.8474V41.8465M36.55 41.8474V41.8465M36.55 41.8465V41.8456M36.55 41.8465V41.8456M36.55 41.8456V41.8447M36.55 41.8456V41.8447M36.55 41.8447V41.8438M36.55 41.8447V41.8438M36.55 41.8438V41.843M36.55 41.8438V41.843M36.55 41.843V41.8421M36.55 41.843V41.8421M36.55 41.8421V41.8412M36.55 41.8421V41.8412M36.55 41.8412V41.8403M36.55 41.8412V41.8403M36.55 41.8403V41.8395M36.55 41.8403V41.8395M36.55 41.8395V41.8386M36.55 41.8395V41.8386M36.55 41.8386V41.8377M36.55 41.8386V41.8377M36.55 41.8377V41.8368M36.55 41.8377V41.8368M36.55 41.8368V41.8359M36.55 41.8368V41.8359M36.55 41.8359V41.8351M36.55 41.8359V41.8351M36.55 41.8351V41.8342M36.55 41.8351V41.8342M36.55 41.8342V41.8333M36.55 41.8342V41.8333M36.55 41.8333V41.8324M36.55 41.8333V41.8324M36.55 41.8324V41.8315M36.55 41.8324V41.8315M36.55 41.8315V41.8306M36.55 41.8315V41.8306M36.55 41.8306V41.8298M36.55 41.8306V41.8298M36.55 41.8298V41.8289M36.55 41.8298V41.8289M36.55 41.8289V41.828M36.55 41.8289V41.828M36.55 41.828V41.8271M36.55 41.828V41.8271M36.55 41.8271V41.8262M36.55 41.8271V41.8262M36.55 41.8262V41.8254M36.55 41.8262V41.8254M36.55 41.8254V41.8245M36.55 41.8254V41.8245M36.55 41.8245V41.8236M36.55 41.8245V41.8236M36.55 41.8236V41.8227M36.55 41.8236V41.8227M36.55 41.8227V41.8218M36.55 41.8227V41.8218M36.55 41.8218V41.8209M36.55 41.8218V41.8209M36.55 41.8209V41.8201M36.55 41.8209V41.8201M36.55 41.8201V41.8192M36.55 41.8201V41.8192M36.55 41.8192V41.8183M36.55 41.8192V41.8183M36.55 41.8183V41.8174M36.55 41.8183V41.8174M36.55 41.8174V41.8165M36.55 41.8174V41.8165M36.55 41.8165V41.8156M36.55 41.8165V41.8156M36.55 41.8156V41.8147M36.55 41.8156V41.8147M36.55 41.8147V41.8139M36.55 41.8147V41.8139M36.55 41.8139V41.813M36.55 41.8139V41.813M36.55 41.813V41.8121M36.55 41.813V41.8121M36.55 41.8121V41.8112M36.55 41.8121V41.8112M36.55 41.8112V41.8103M36.55 41.8112V41.8103M36.55 41.8103V41.8094M36.55 41.8103V41.8094M36.55 41.8094V41.8085M36.55 41.8094V41.8085M36.55 41.8085V41.8076M36.55 41.8085V41.8076M36.55 41.8076V41.8068M36.55 41.8076V41.8068M36.55 41.8068V41.8059M36.55 41.8068V41.8059M36.55 41.8059V41.805M36.55 41.8059V41.805M36.55 41.805V41.8041M36.55 41.805V41.8041M36.55 41.8041V41.8032M36.55 41.8041V41.8032M36.55 41.8032V41.8023M36.55 41.8032V41.8023M36.55 41.8023V41.8014M36.55 41.8023V41.8014M36.55 41.8014V41.8005M36.55 41.8014V41.8005M36.55 41.8005V41.7996M36.55 41.8005V41.7996M36.55 41.7996V41.7987M36.55 41.7996V41.7987M36.55 41.7987V41.7978M36.55 41.7987V41.7978M36.55 41.7978V41.7969M36.55 41.7978V41.7969M36.55 41.7969V41.796M36.55 41.7969V41.796M36.55 41.796V41.7952M36.55 41.796V41.7952M36.55 41.7952V41.7943M36.55 41.7952V41.7943M36.55 41.7943V41.7934M36.55 41.7943V41.7934M36.55 41.7934V41.7925M36.55 41.7934V41.7925M36.55 41.7925V41.7916M36.55 41.7925V41.7916M36.55 41.7916V41.7907M36.55 41.7916V41.7907M36.55 41.7907V41.7898M36.55 41.7907V41.7898M36.55 41.7898V41.7889M36.55 41.7898V41.7889M36.55 41.7889V41.788M36.55 41.7889V41.788M36.55 41.788V41.7871M36.55 41.788V41.7871M36.55 41.7871V41.7862M36.55 41.7871V41.7862M36.55 41.7862V41.7853M36.55 41.7862V41.7853M36.55 41.7853V41.7844M36.55 41.7853V41.7844M36.55 41.7844V41.7835M36.55 41.7844V41.7835M36.55 41.7835V41.7825M36.55 41.7835V41.7825M36.55 41.7825V41.7816M36.55 41.7825V41.7816M36.55 41.7816V41.7807M36.55 41.7816V41.7807M36.55 41.7807V41.7798M36.55 41.7807V41.7798M36.55 41.7798V41.7789M36.55 41.7798V41.7789M36.55 41.7789V41.778M36.55 41.7789V41.778M36.55 41.778V41.7771M36.55 41.778V41.7771M36.55 41.7771V41.7762M36.55 41.7771V41.7762M36.55 41.7762V41.7753M36.55 41.7762V41.7753M36.55 41.7753V41.7744M36.55 41.7753V41.7744M36.55 41.7744V41.7735M36.55 41.7744V41.7735M36.55 41.7735V41.7726M36.55 41.7735V41.7726M36.55 41.7726V41.7716M36.55 41.7726V41.7716M36.55 41.7716V41.7707M36.55 41.7716V41.7707M36.55 41.7707V41.7698M36.55 41.7707V41.7698M36.55 41.7698V41.7689M36.55 41.7698V41.7689M36.55 41.7689V41.768M36.55 41.7689V41.768M36.55 41.768V41.7671M36.55 41.768V41.7671M36.55 41.7671V41.7661M36.55 41.7671V41.7661M36.55 41.7661V41.7652M36.55 41.7661V41.7652M36.55 41.7652V41.7643M36.55 41.7652V41.7643M36.55 41.7643V41.7634M36.55 41.7643V41.7634M36.55 41.7634V41.7625M36.55 41.7634V41.7625M36.55 41.7625V41.7615M36.55 41.7625V41.7615M36.55 41.7615V41.7606M36.55 41.7615V41.7606M36.55 41.7606V41.7597M36.55 41.7606V41.7597M36.55 41.7597V41.7588M36.55 41.7597V41.7588M36.55 41.7588V41.7578M36.55 41.7588V41.7578M36.55 41.7578V41.7569M36.55 41.7578V41.7569M36.55 41.7569V41.756M36.55 41.7569V41.756M36.55 41.756V41.7551M36.55 41.756V41.7551M36.55 41.7551V41.7541M36.55 41.7551V41.7541M36.55 41.7541V41.7532M36.55 41.7541V41.7532M36.55 41.7532V41.7523M36.55 41.7532V41.7523M36.55 41.7523V41.7513M36.55 41.7523V41.7513M36.55 41.7513V41.7504M36.55 41.7513V41.7504M36.55 41.7504V41.7495M36.55 41.7504V41.7495M36.55 41.7495V41.7485M36.55 41.7495V41.7485M36.55 41.7485V41.7476M36.55 41.7485V41.7476M36.55 41.7476V41.7467M36.55 41.7476V41.7467M36.55 41.7467V41.7457M36.55 41.7467V41.7457M36.55 41.7457V41.7448M36.55 41.7457V41.7448M36.55 41.7448V41.7438M36.55 41.7448V41.7438M36.55 41.7438V41.7429M36.55 41.7438V41.7429M36.55 41.7429V41.742M36.55 41.7429V41.742M36.55 41.742V41.741M36.55 41.742V41.741M36.55 41.741V41.7401M36.55 41.741V41.7401M36.55 41.7401V41.7391M36.55 41.7401V41.7391M36.55 41.7391V41.7382M36.55 41.7391V41.7382M36.55 41.7382V41.7372M36.55 41.7382V41.7372M36.55 41.7372V41.7363M36.55 41.7372V41.7363M36.55 41.7363V41.7353M36.55 41.7363V41.7353M36.55 41.7353V41.7344M36.55 41.7353V41.7344M36.55 41.7344V41.7334M36.55 41.7344V41.7334M36.55 41.7334V41.7325M36.55 41.7334V41.7325M36.55 41.7325V41.7315M36.55 41.7325V41.7315M36.55 41.7315V41.7306M36.55 41.7315V41.7306M36.55 41.7306V41.7296M36.55 41.7306V41.7296M36.55 41.7296V41.7286M36.55 41.7296V41.7286M36.55 41.7286V41.7277M36.55 41.7286V41.7277M36.55 41.7277V41.7267M36.55 41.7277V41.7267M36.55 41.7267V41.7258M36.55 41.7267V41.7258M36.55 41.7258V41.7248M36.55 41.7258V41.7248M36.55 41.7248V41.7238M36.55 41.7248V41.7238M36.55 41.7238V41.7229M36.55 41.7238V41.7229M36.55 41.7229V41.7219M36.55 41.7229V41.7219M36.55 41.7219V41.7209M36.55 41.7219V41.7209M36.55 41.7209V41.72V41.7209Z" stroke="url(#paint2_linear_811_4421)" stroke-width="0.5"/>
</g>
<g filter="url(#filter2_d_811_4421)">
<path d="M41.8 29.6V25.1C41.8 24.5 41.3 24 40.7 24H36.2C36.2 23.8 36.3 23.7 36.3 23.5C36.3 21.6 34.7 20 32.8 20C30.9 20 29.3 21.6 29.3 23.5C29.3 23.7 29.3 23.8 29.4 24H24.8C24.2 24 23.7 24.5 23.7 25.1V29.6C23.6 29.6 23.6 29.6 23.5 29.6C21.6 29.6 20 31.1 20 33.1C20 35 21.6 36.6 23.5 36.6C23.6 36.6 23.6 36.6 23.7 36.6V41C23.7 41.6 24.2 42.1 24.8 42.1H29.3C29.3 41.9 29.3 41.8 29.3 41.6C29.3 39.7 30.9 38.1 32.8 38.1C34.7 38.1 36.3 39.7 36.3 41.6C36.3 41.8 36.3 41.9 36.3 42.1H40.8C41.4 42.1 41.9 41.6 41.9 41V36.5C40.1 36.4 38.7 34.9 38.7 33C38.7 31.1 40 29.7 41.8 29.6Z" fill="url(#paint3_linear_811_4421)"/>
<path d="M35.95 24.25V24C35.95 23.8592 35.9859 23.7518 36.0108 23.6769L36.0128 23.6709C36.0378 23.596 36.05 23.5554 36.05 23.5C36.05 21.7381 34.5619 20.25 32.8 20.25C31.0381 20.25 29.55 21.7381 29.55 23.5C29.55 23.6049 29.5506 23.6582 29.5591 23.7089C29.5665 23.7534 29.5817 23.8044 29.6236 23.8882L29.8045 24.25H29.4H24.8C24.3381 24.25 23.95 24.6381 23.95 25.1V29.6V29.85H23.7H23.6994H23.6988H23.6983H23.6977H23.6971H23.6965H23.696H23.6954H23.6948H23.6943H23.6937H23.6931H23.6926H23.692H23.6915H23.6909H23.6904H23.6898H23.6893H23.6887H23.6882H23.6876H23.6871H23.6866H23.686H23.6855H23.685H23.6845H23.6839H23.6834H23.6829H23.6824H23.6819H23.6813H23.6808H23.6803H23.6798H23.6793H23.6788H23.6783H23.6778H23.6773H23.6768H23.6763H23.6758H23.6753H23.6748H23.6743H23.6739H23.6734H23.6729H23.6724H23.6719H23.6715H23.671H23.6705H23.67H23.6696H23.6691H23.6686H23.6682H23.6677H23.6673H23.6668H23.6663H23.6659H23.6654H23.665H23.6645H23.6641H23.6636H23.6632H23.6627H23.6623H23.6619H23.6614H23.661H23.6606H23.6601H23.6597H23.6593H23.6588H23.6584H23.658H23.6575H23.6571H23.6567H23.6563H23.6559H23.6554H23.655H23.6546H23.6542H23.6538H23.6534H23.653H23.6526H23.6522H23.6518H23.6514H23.651H23.6506H23.6502H23.6498H23.6494H23.649H23.6486H23.6482H23.6478H23.6474H23.647H23.6466H23.6463H23.6459H23.6455H23.6451H23.6447H23.6443H23.644H23.6436H23.6432H23.6428H23.6425H23.6421H23.6417H23.6414H23.641H23.6406H23.6403H23.6399H23.6395H23.6392H23.6388H23.6384H23.6381H23.6377H23.6374H23.637H23.6367H23.6363H23.636H23.6356H23.6353H23.6349H23.6346H23.6342H23.6339H23.6335H23.6332H23.6328H23.6325H23.6321H23.6318H23.6315H23.6311H23.6308H23.6304H23.6301H23.6298H23.6294H23.6291H23.6288H23.6284H23.6281H23.6278H23.6275H23.6271H23.6268H23.6265H23.6261H23.6258H23.6255H23.6252H23.6248H23.6245H23.6242H23.6239H23.6236H23.6232H23.6229H23.6226H23.6223H23.622H23.6216H23.6213H23.621H23.6207H23.6204H23.6201H23.6198H23.6195H23.6191H23.6188H23.6185H23.6182H23.6179H23.6176H23.6173H23.617H23.6167H23.6164H23.6161H23.6157H23.6154H23.6151H23.6148H23.6145H23.6142H23.6139H23.6136H23.6133H23.613H23.6127H23.6124H23.6121H23.6118H23.6115H23.6112H23.6109H23.6106H23.6103H23.61H23.6097H23.6094H23.6091H23.6088H23.6085H23.6082H23.6079H23.6076H23.6073H23.6071H23.6068H23.6065H23.6062H23.6059H23.6056H23.6053H23.605H23.6047H23.6044H23.6041H23.6038H23.6035H23.6032H23.6029H23.6026H23.6023H23.6021H23.6018H23.6015H23.6012H23.6009H23.6006H23.6003H23.6H23.5997H23.5994H23.5991H23.5988H23.5985H23.5982H23.5979H23.5977H23.5974H23.5971H23.5968H23.5965H23.5962H23.5959H23.5956H23.5953H23.595H23.5947H23.5944H23.5941H23.5938H23.5935H23.5932H23.5929H23.5927H23.5924H23.5921H23.5918H23.5915H23.5912H23.5909H23.5906H23.5903H23.59H23.5897H23.5894H23.5891H23.5888H23.5885H23.5882H23.5879H23.5876H23.5873H23.587H23.5867H23.5864H23.5861H23.5858H23.5855H23.5852H23.5849H23.5846H23.5843H23.5839H23.5836H23.5833H23.583H23.5827H23.5824H23.5821H23.5818H23.5815H23.5812H23.5809H23.5805H23.5802H23.5799H23.5796H23.5793H23.579H23.5787H23.5784H23.578H23.5777H23.5774H23.5771H23.5768H23.5764H23.5761H23.5758H23.5755H23.5752H23.5748H23.5745H23.5742H23.5739H23.5735H23.5732H23.5729H23.5725H23.5722H23.5719H23.5716H23.5712H23.5709H23.5706H23.5702H23.5699H23.5696H23.5692H23.5689H23.5685H23.5682H23.5679H23.5675H23.5672H23.5668H23.5665H23.5661H23.5658H23.5654H23.5651H23.5647H23.5644H23.564H23.5637H23.5633H23.563H23.5626H23.5623H23.5619H23.5616H23.5612H23.5608H23.5605H23.5601H23.5597H23.5594H23.559H23.5586H23.5583H23.5579H23.5575H23.5572H23.5568H23.5564H23.556H23.5557H23.5553H23.5549H23.5545H23.5541H23.5537H23.5534H23.553H23.5526H23.5522H23.5518H23.5514H23.551H23.5506H23.5502H23.5498H23.5494H23.549H23.5486H23.5482H23.5478H23.5474H23.547H23.5466H23.5462H23.5458H23.5454H23.545H23.5446H23.5441H23.5437H23.5433H23.5429H23.5425H23.542H23.5416H23.5412H23.5407H23.5403H23.5399H23.5394H23.539H23.5386H23.5381H23.5377H23.5373H23.5368H23.5364H23.5359H23.5355H23.535H23.5346H23.5341H23.5337H23.5332H23.5327H23.5323H23.5318H23.5314H23.5309H23.5304H23.53H23.5295H23.529H23.5285H23.5281H23.5276H23.5271H23.5266H23.5261H23.5257H23.5252H23.5247H23.5242H23.5237H23.5232H23.5227H23.5222H23.5217H23.5212H23.5207H23.5202H23.5197H23.5192H23.5187H23.5181H23.5176H23.5171H23.5166H23.5161H23.5155H23.515H23.5145H23.514H23.5134H23.5129H23.5124H23.5118H23.5113H23.5107H23.5102H23.5096H23.5091H23.5085H23.508H23.5074H23.5069H23.5063H23.5057H23.5052H23.5046H23.504H23.5035H23.5029H23.5023H23.5017H23.5012H23.5006H23.5C21.7334 29.85 20.25 31.2427 20.25 33.1C20.25 34.8619 21.7381 36.35 23.5 36.35H23.5006H23.5012H23.5017H23.5023H23.5029H23.5035H23.504H23.5046H23.5052H23.5057H23.5063H23.5069H23.5074H23.508H23.5085H23.5091H23.5096H23.5102H23.5107H23.5113H23.5118H23.5124H23.5129H23.5134H23.514H23.5145H23.515H23.5155H23.5161H23.5166H23.5171H23.5176H23.5181H23.5187H23.5192H23.5197H23.5202H23.5207H23.5212H23.5217H23.5222H23.5227H23.5232H23.5237H23.5242H23.5247H23.5252H23.5257H23.5261H23.5266H23.5271H23.5276H23.5281H23.5285H23.529H23.5295H23.53H23.5304H23.5309H23.5314H23.5318H23.5323H23.5327H23.5332H23.5337H23.5341H23.5346H23.535H23.5355H23.5359H23.5364H23.5368H23.5373H23.5377H23.5381H23.5386H23.539H23.5394H23.5399H23.5403H23.5407H23.5412H23.5416H23.542H23.5425H23.5429H23.5433H23.5437H23.5441H23.5446H23.545H23.5454H23.5458H23.5462H23.5466H23.547H23.5474H23.5478H23.5482H23.5486H23.549H23.5494H23.5498H23.5502H23.5506H23.551H23.5514H23.5518H23.5522H23.5526H23.553H23.5534H23.5537H23.5541H23.5545H23.5549H23.5553H23.5557H23.556H23.5564H23.5568H23.5572H23.5575H23.5579H23.5583H23.5586H23.559H23.5594H23.5597H23.5601H23.5605H23.5608H23.5612H23.5616H23.5619H23.5623H23.5626H23.563H23.5633H23.5637H23.564H23.5644H23.5647H23.5651H23.5654H23.5658H23.5661H23.5665H23.5668H23.5672H23.5675H23.5679H23.5682H23.5685H23.5689H23.5692H23.5696H23.5699H23.5702H23.5706H23.5709H23.5712H23.5716H23.5719H23.5722H23.5725H23.5729H23.5732H23.5735H23.5739H23.5742H23.5745H23.5748H23.5752H23.5755H23.5758H23.5761H23.5764H23.5768H23.5771H23.5774H23.5777H23.578H23.5784H23.5787H23.579H23.5793H23.5796H23.5799H23.5802H23.5805H23.5809H23.5812H23.5815H23.5818H23.5821H23.5824H23.5827H23.583H23.5833H23.5836H23.5839H23.5843H23.5846H23.5849H23.5852H23.5855H23.5858H23.5861H23.5864H23.5867H23.587H23.5873H23.5876H23.5879H23.5882H23.5885H23.5888H23.5891H23.5894H23.5897H23.59H23.5903H23.5906H23.5909H23.5912H23.5915H23.5918H23.5921H23.5924H23.5927H23.5929H23.5932H23.5935H23.5938H23.5941H23.5944H23.5947H23.595H23.5953H23.5956H23.5959H23.5962H23.5965H23.5968H23.5971H23.5974H23.5977H23.5979H23.5982H23.5985H23.5988H23.5991H23.5994H23.5997H23.6H23.6003H23.6006H23.6009H23.6012H23.6015H23.6018H23.6021H23.6023H23.6026H23.6029H23.6032H23.6035H23.6038H23.6041H23.6044H23.6047H23.605H23.6053H23.6056H23.6059H23.6062H23.6065H23.6068H23.6071H23.6073H23.6076H23.6079H23.6082H23.6085H23.6088H23.6091H23.6094H23.6097H23.61H23.6103H23.6106H23.6109H23.6112H23.6115H23.6118H23.6121H23.6124H23.6127H23.613H23.6133H23.6136H23.6139H23.6142H23.6145H23.6148H23.6151H23.6154H23.6157H23.6161H23.6164H23.6167H23.617H23.6173H23.6176H23.6179H23.6182H23.6185H23.6188H23.6191H23.6195H23.6198H23.6201H23.6204H23.6207H23.621H23.6213H23.6216H23.622H23.6223H23.6226H23.6229H23.6232H23.6236H23.6239H23.6242H23.6245H23.6248H23.6252H23.6255H23.6258H23.6261H23.6265H23.6268H23.6271H23.6275H23.6278H23.6281H23.6284H23.6288H23.6291H23.6294H23.6298H23.6301H23.6304H23.6308H23.6311H23.6315H23.6318H23.6321H23.6325H23.6328H23.6332H23.6335H23.6339H23.6342H23.6346H23.6349H23.6353H23.6356H23.636H23.6363H23.6367H23.637H23.6374H23.6377H23.6381H23.6384H23.6388H23.6392H23.6395H23.6399H23.6403H23.6406H23.641H23.6414H23.6417H23.6421H23.6425H23.6428H23.6432H23.6436H23.644H23.6443H23.6447H23.6451H23.6455H23.6459H23.6463H23.6466H23.647H23.6474H23.6478H23.6482H23.6486H23.649H23.6494H23.6498H23.6502H23.6506H23.651H23.6514H23.6518H23.6522H23.6526H23.653H23.6534H23.6538H23.6542H23.6546H23.655H23.6554H23.6559H23.6563H23.6567H23.6571H23.6575H23.658H23.6584H23.6588H23.6593H23.6597H23.6601H23.6606H23.661H23.6614H23.6619H23.6623H23.6627H23.6632H23.6636H23.6641H23.6645H23.665H23.6654H23.6659H23.6663H23.6668H23.6673H23.6677H23.6682H23.6686H23.6691H23.6696H23.67H23.6705H23.671H23.6715H23.6719H23.6724H23.6729H23.6734H23.6739H23.6743H23.6748H23.6753H23.6758H23.6763H23.6768H23.6773H23.6778H23.6783H23.6788H23.6793H23.6798H23.6803H23.6808H23.6813H23.6819H23.6824H23.6829H23.6834H23.6839H23.6845H23.685H23.6855H23.686H23.6866H23.6871H23.6876H23.6882H23.6887H23.6893H23.6898H23.6904H23.6909H23.6915H23.692H23.6926H23.6931H23.6937H23.6943H23.6948H23.6954H23.696H23.6965H23.6971H23.6977H23.6983H23.6988H23.6994H23.7H23.95V36.6V41C23.95 41.4619 24.3381 41.85 24.8 41.85H29.05V41.8491V41.8482V41.8474V41.8465V41.8456V41.8447V41.8438V41.843V41.8421V41.8412V41.8403V41.8395V41.8386V41.8377V41.8368V41.8359V41.8351V41.8342V41.8333V41.8324V41.8315V41.8306V41.8298V41.8289V41.828V41.8271V41.8262V41.8254V41.8245V41.8236V41.8227V41.8218V41.8209V41.8201V41.8192V41.8183V41.8174V41.8165V41.8156V41.8147V41.8139V41.813V41.8121V41.8112V41.8103V41.8094V41.8085V41.8076V41.8068V41.8059V41.805V41.8041V41.8032V41.8023V41.8014V41.8005V41.7996V41.7987V41.7978V41.7969V41.796V41.7952V41.7943V41.7934V41.7925V41.7916V41.7907V41.7898V41.7889V41.788V41.7871V41.7862V41.7853V41.7844V41.7835V41.7825V41.7816V41.7807V41.7798V41.7789V41.778V41.7771V41.7762V41.7753V41.7744V41.7735V41.7726V41.7716V41.7707V41.7698V41.7689V41.768V41.7671V41.7661V41.7652V41.7643V41.7634V41.7625V41.7615V41.7606V41.7597V41.7588V41.7578V41.7569V41.756V41.7551V41.7541V41.7532V41.7523V41.7513V41.7504V41.7495V41.7485V41.7476V41.7467V41.7457V41.7448V41.7438V41.7429V41.742V41.741V41.7401V41.7391V41.7382V41.7372V41.7363V41.7353V41.7344V41.7334V41.7325V41.7315V41.7306V41.7296V41.7286V41.7277V41.7267V41.7258V41.7248V41.7238V41.7229V41.7219V41.7209V41.72V41.719V41.718V41.717V41.7161V41.7151V41.7141V41.7131V41.7122V41.7112V41.7102V41.7092V41.7082V41.7072V41.7062V41.7053V41.7043V41.7033V41.7023V41.7013V41.7003V41.6993V41.6983V41.6973V41.6963V41.6953V41.6943V41.6933V41.6923V41.6912V41.6902V41.6892V41.6882V41.6872V41.6862V41.6852V41.6841V41.6831V41.6821V41.6811V41.68V41.679V41.678V41.6769V41.6759V41.6749V41.6738V41.6728V41.6717V41.6707V41.6697V41.6686V41.6676V41.6665V41.6655V41.6644V41.6634V41.6623V41.6612V41.6602V41.6591V41.6581V41.657V41.6559V41.6549V41.6538V41.6527V41.6516V41.6506V41.6495V41.6484V41.6473V41.6462V41.6451V41.6441V41.643V41.6419V41.6408V41.6397V41.6386V41.6375V41.6364V41.6353V41.6342V41.6331V41.6319V41.6308V41.6297V41.6286V41.6275V41.6264V41.6252V41.6241V41.623V41.6219V41.6207V41.6196V41.6185V41.6173V41.6162V41.615V41.6139V41.6128V41.6116V41.6105V41.6093V41.6081V41.607V41.6058V41.6047V41.6035V41.6023V41.6012V41.6C29.05 39.5619 30.7619 37.85 32.8 37.85C34.8381 37.85 36.55 39.5619 36.55 41.6L35.95 24.25ZM35.95 24.25H36.2M35.95 24.25H36.2M36.2 24.25H40.7C41.1619 24.25 41.55 24.6381 41.55 25.1V29.6M36.2 24.25L41.55 29.6M41.55 29.6H41.8H41.55ZM36.55 41.8491V41.85V41.8491ZM36.55 41.8491V41.8482M36.55 41.8491V41.8482M36.55 41.8482V41.8474M36.55 41.8482V41.8474M36.55 41.8474V41.8465M36.55 41.8474V41.8465M36.55 41.8465V41.8456M36.55 41.8465V41.8456M36.55 41.8456V41.8447M36.55 41.8456V41.8447M36.55 41.8447V41.8438M36.55 41.8447V41.8438M36.55 41.8438V41.843M36.55 41.8438V41.843M36.55 41.843V41.8421M36.55 41.843V41.8421M36.55 41.8421V41.8412M36.55 41.8421V41.8412M36.55 41.8412V41.8403M36.55 41.8412V41.8403M36.55 41.8403V41.8395M36.55 41.8403V41.8395M36.55 41.8395V41.8386M36.55 41.8395V41.8386M36.55 41.8386V41.8377M36.55 41.8386V41.8377M36.55 41.8377V41.8368M36.55 41.8377V41.8368M36.55 41.8368V41.8359M36.55 41.8368V41.8359M36.55 41.8359V41.8351M36.55 41.8359V41.8351M36.55 41.8351V41.8342M36.55 41.8351V41.8342M36.55 41.8342V41.8333M36.55 41.8342V41.8333M36.55 41.8333V41.8324M36.55 41.8333V41.8324M36.55 41.8324V41.8315M36.55 41.8324V41.8315M36.55 41.8315V41.8306M36.55 41.8315V41.8306M36.55 41.8306V41.8298M36.55 41.8306V41.8298M36.55 41.8298V41.8289M36.55 41.8298V41.8289M36.55 41.8289V41.828M36.55 41.8289V41.828M36.55 41.828V41.8271M36.55 41.828V41.8271M36.55 41.8271V41.8262M36.55 41.8271V41.8262M36.55 41.8262V41.8254M36.55 41.8262V41.8254M36.55 41.8254V41.8245M36.55 41.8254V41.8245M36.55 41.8245V41.8236M36.55 41.8245V41.8236M36.55 41.8236V41.8227M36.55 41.8236V41.8227M36.55 41.8227V41.8218M36.55 41.8227V41.8218M36.55 41.8218V41.8209M36.55 41.8218V41.8209M36.55 41.8209V41.8201M36.55 41.8209V41.8201M36.55 41.8201V41.8192M36.55 41.8201V41.8192M36.55 41.8192V41.8183M36.55 41.8192V41.8183M36.55 41.8183V41.8174M36.55 41.8183V41.8174M36.55 41.8174V41.8165M36.55 41.8174V41.8165M36.55 41.8165V41.8156M36.55 41.8165V41.8156M36.55 41.8156V41.8147M36.55 41.8156V41.8147M36.55 41.8147V41.8139M36.55 41.8147V41.8139M36.55 41.8139V41.813M36.55 41.8139V41.813M36.55 41.813V41.8121M36.55 41.813V41.8121M36.55 41.8121V41.8112M36.55 41.8121V41.8112M36.55 41.8112V41.8103M36.55 41.8112V41.8103M36.55 41.8103V41.8094M36.55 41.8103V41.8094M36.55 41.8094V41.8085M36.55 41.8094V41.8085M36.55 41.8085V41.8076M36.55 41.8085V41.8076M36.55 41.8076V41.8068M36.55 41.8076V41.8068M36.55 41.8068V41.8059M36.55 41.8068V41.8059M36.55 41.8059V41.805M36.55 41.8059V41.805M36.55 41.805V41.8041M36.55 41.805V41.8041M36.55 41.8041V41.8032M36.55 41.8041V41.8032M36.55 41.8032V41.8023M36.55 41.8032V41.8023M36.55 41.8023V41.8014M36.55 41.8023V41.8014M36.55 41.8014V41.8005M36.55 41.8014V41.8005M36.55 41.8005V41.7996M36.55 41.8005V41.7996M36.55 41.7996V41.7987M36.55 41.7996V41.7987M36.55 41.7987V41.7978M36.55 41.7987V41.7978M36.55 41.7978V41.7969M36.55 41.7978V41.7969M36.55 41.7969V41.796M36.55 41.7969V41.796M36.55 41.796V41.7952M36.55 41.796V41.7952M36.55 41.7952V41.7943M36.55 41.7952V41.7943M36.55 41.7943V41.7934M36.55 41.7943V41.7934M36.55 41.7934V41.7925M36.55 41.7934V41.7925M36.55 41.7925V41.7916M36.55 41.7925V41.7916M36.55 41.7916V41.7907M36.55 41.7916V41.7907M36.55 41.7907V41.7898M36.55 41.7907V41.7898M36.55 41.7898V41.7889M36.55 41.7898V41.7889M36.55 41.7889V41.788M36.55 41.7889V41.788M36.55 41.788V41.7871M36.55 41.788V41.7871M36.55 41.7871V41.7862M36.55 41.7871V41.7862M36.55 41.7862V41.7853M36.55 41.7862V41.7853M36.55 41.7853V41.7844M36.55 41.7853V41.7844M36.55 41.7844V41.7835M36.55 41.7844V41.7835M36.55 41.7835V41.7825M36.55 41.7835V41.7825M36.55 41.7825V41.7816M36.55 41.7825V41.7816M36.55 41.7816V41.7807M36.55 41.7816V41.7807M36.55 41.7807V41.7798M36.55 41.7807V41.7798M36.55 41.7798V41.7789M36.55 41.7798V41.7789M36.55 41.7789V41.778M36.55 41.7789V41.778M36.55 41.778V41.7771M36.55 41.778V41.7771M36.55 41.7771V41.7762M36.55 41.7771V41.7762M36.55 41.7762V41.7753M36.55 41.7762V41.7753M36.55 41.7753V41.7744M36.55 41.7753V41.7744M36.55 41.7744V41.7735M36.55 41.7744V41.7735M36.55 41.7735V41.7726M36.55 41.7735V41.7726M36.55 41.7726V41.7716M36.55 41.7726V41.7716M36.55 41.7716V41.7707M36.55 41.7716V41.7707M36.55 41.7707V41.7698M36.55 41.7707V41.7698M36.55 41.7698V41.7689M36.55 41.7698V41.7689M36.55 41.7689V41.768M36.55 41.7689V41.768M36.55 41.768V41.7671M36.55 41.768V41.7671M36.55 41.7671V41.7661M36.55 41.7671V41.7661M36.55 41.7661V41.7652M36.55 41.7661V41.7652M36.55 41.7652V41.7643M36.55 41.7652V41.7643M36.55 41.7643V41.7634M36.55 41.7643V41.7634M36.55 41.7634V41.7625M36.55 41.7634V41.7625M36.55 41.7625V41.7615M36.55 41.7625V41.7615M36.55 41.7615V41.7606M36.55 41.7615V41.7606M36.55 41.7606V41.7597M36.55 41.7606V41.7597M36.55 41.7597V41.7588M36.55 41.7597V41.7588M36.55 41.7588V41.7578M36.55 41.7588V41.7578M36.55 41.7578V41.7569M36.55 41.7578V41.7569M36.55 41.7569V41.756M36.55 41.7569V41.756M36.55 41.756V41.7551M36.55 41.756V41.7551M36.55 41.7551V41.7541M36.55 41.7551V41.7541M36.55 41.7541V41.7532M36.55 41.7541V41.7532M36.55 41.7532V41.7523M36.55 41.7532V41.7523M36.55 41.7523V41.7513M36.55 41.7523V41.7513M36.55 41.7513V41.7504M36.55 41.7513V41.7504M36.55 41.7504V41.7495M36.55 41.7504V41.7495M36.55 41.7495V41.7485M36.55 41.7495V41.7485M36.55 41.7485V41.7476M36.55 41.7485V41.7476M36.55 41.7476V41.7467M36.55 41.7476V41.7467M36.55 41.7467V41.7457M36.55 41.7467V41.7457M36.55 41.7457V41.7448M36.55 41.7457V41.7448M36.55 41.7448V41.7438M36.55 41.7448V41.7438M36.55 41.7438V41.7429M36.55 41.7438V41.7429M36.55 41.7429V41.742M36.55 41.7429V41.742M36.55 41.742V41.741M36.55 41.742V41.741M36.55 41.741V41.7401M36.55 41.741V41.7401M36.55 41.7401V41.7391M36.55 41.7401V41.7391M36.55 41.7391V41.7382M36.55 41.7391V41.7382M36.55 41.7382V41.7372M36.55 41.7382V41.7372M36.55 41.7372V41.7363M36.55 41.7372V41.7363M36.55 41.7363V41.7353M36.55 41.7363V41.7353M36.55 41.7353V41.7344M36.55 41.7353V41.7344M36.55 41.7344V41.7334M36.55 41.7344V41.7334M36.55 41.7334V41.7325M36.55 41.7334V41.7325M36.55 41.7325V41.7315M36.55 41.7325V41.7315M36.55 41.7315V41.7306M36.55 41.7315V41.7306M36.55 41.7306V41.7296M36.55 41.7306V41.7296M36.55 41.7296V41.7286M36.55 41.7296V41.7286M36.55 41.7286V41.7277M36.55 41.7286V41.7277M36.55 41.7277V41.7267M36.55 41.7277V41.7267M36.55 41.7267V41.7258M36.55 41.7267V41.7258M36.55 41.7258V41.7248M36.55 41.7258V41.7248M36.55 41.7248V41.7238M36.55 41.7248V41.7238M36.55 41.7238V41.7229M36.55 41.7238V41.7229M36.55 41.7229V41.7219M36.55 41.7229V41.7219M36.55 41.7219V41.7209M36.55 41.7219V41.7209M36.55 41.7209V41.72V41.7209Z" stroke="url(#paint4_linear_811_4421)" stroke-width="0.5"/>
</g>
<defs>
<filter id="filter0_b_811_4421" x="-23.8008" y="-23.7998" width="109.602" height="109.6" filterUnits="userSpaceOnUse" color-interpolation-filters="sRGB">
<feFlood flood-opacity="0" result="BackgroundImageFix"/>
<feGaussianBlur in="BackgroundImageFix" stdDeviation="15"/>
<feComposite in2="SourceAlpha" operator="in" result="effect1_backgroundBlur_811_4421"/>
<feBlend mode="normal" in="SourceGraphic" in2="effect1_backgroundBlur_811_4421" result="shape"/>
</filter>
<filter id="filter1_f_811_4421" x="0" y="0" width="61.9004" height="62.0996" filterUnits="userSpaceOnUse" color-interpolation-filters="sRGB">
<feFlood flood-opacity="0" result="BackgroundImageFix"/>
<feBlend mode="normal" in="SourceGraphic" in2="BackgroundImageFix" result="shape"/>
<feGaussianBlur stdDeviation="10" result="effect1_foregroundBlur_811_4421"/>
</filter>
<filter id="filter2_d_811_4421" x="14" y="20" width="33.9004" height="34.0996" filterUnits="userSpaceOnUse" color-interpolation-filters="sRGB">
<feFlood flood-opacity="0" result="BackgroundImageFix"/>
<feColorMatrix in="SourceAlpha" type="matrix" values="0 0 0 0 0 0 0 0 0 0 0 0 0 0 0 0 0 0 127 0" result="hardAlpha"/>
<feOffset dy="6"/>
<feGaussianBlur stdDeviation="3"/>
<feComposite in2="hardAlpha" operator="out"/>
<feColorMatrix type="matrix" values="0 0 0 0 0 0 0 0 0 0 0 0 0 0 0 0 0 0 0.25 0"/>
<feBlend mode="normal" in2="BackgroundImageFix" result="effect1_dropShadow_811_4421"/>
<feBlend mode="normal" in="SourceGraphic" in2="effect1_dropShadow_811_4421" result="shape"/>
</filter>
<linearGradient id="paint0_linear_811_4421" x1="27.4647" y1="5.17484" x2="27.4647" y2="55.519" gradientUnits="userSpaceOnUse">
<stop stop-color="white" stop-opacity="0.55"/>
<stop offset="1" stop-color="white" stop-opacity="0"/>
</linearGradient>
<linearGradient id="paint1_linear_811_4421" x1="41.0922" y1="30.3343" x2="38.3589" y2="16.399" gradientUnits="userSpaceOnUse">
<stop stop-color="#78E7C5"/>
<stop offset="0.442708" stop-color="#70FFB8"/>
<stop offset="1" stop-color="#9DFFAD"/>
</linearGradient>
<linearGradient id="paint2_linear_811_4421" x1="30.95" y1="20" x2="30.95" y2="42.1" gradientUnits="userSpaceOnUse">
<stop stop-color="white"/>
<stop offset="1" stop-color="white" stop-opacity="0"/>
</linearGradient>
<linearGradient id="paint3_linear_811_4421" x1="41.0922" y1="30.3343" x2="38.3589" y2="16.399" gradientUnits="userSpaceOnUse">
<stop stop-color="#78E7C5"/>
<stop offset="0.442708" stop-color="#70FFB8"/>
<stop offset="1" stop-color="#9DFFAD"/>
</linearGradient>
<linearGradient id="paint4_linear_811_4421" x1="30.95" y1="20" x2="30.95" y2="42.1" gradientUnits="userSpaceOnUse">
<stop stop-color="white"/>
<stop offset="1" stop-color="white" stop-opacity="0"/>
</linearGradient>
</defs>
</svg>
