<svg width="55" height="48" viewBox="0 0 55 48" fill="none" xmlns="http://www.w3.org/2000/svg">
<path d="M54.031 24.3785C54.031 20.8634 49.6291 17.5322 42.88 15.4664C44.4375 8.58755 43.7453 3.11477 40.6951 1.3626C39.992 0.951595 39.1702 0.756904 38.2724 0.756904V3.16884C38.7699 3.16884 39.1702 3.26619 39.5054 3.45004C40.9763 4.29367 41.6146 7.50597 41.1169 11.6376C40.9981 12.6543 40.8034 13.725 40.5654 14.8174C38.4454 14.2983 36.1308 13.8981 33.6973 13.6385C32.2373 11.6376 30.723 9.82054 29.1979 8.23063C32.7239 4.95344 36.0336 3.15801 38.2833 3.15801V0.746094C35.3088 0.746094 31.4152 2.866 27.4784 6.54335C23.5413 2.88762 19.6477 0.789361 16.6734 0.789361V3.20128C18.9122 3.20128 22.2326 4.9859 25.7585 8.24144C24.2443 9.83137 22.7301 11.6376 21.2915 13.6385C18.8472 13.8981 16.5326 14.2983 14.4128 14.8282C14.1639 13.7467 13.9801 12.6975 13.8503 11.6917C13.3421 7.56005 13.9692 4.34775 15.4295 3.49331C15.7539 3.29862 16.1757 3.21211 16.6734 3.21211V0.800172C15.7648 0.800172 14.9427 0.994862 14.229 1.40587C11.1896 3.15801 10.5083 8.61999 12.0765 15.4772C5.34914 17.5538 0.96875 20.8743 0.96875 24.3785C0.96875 27.8938 5.37076 31.2251 12.1198 33.2907C10.5623 40.1697 11.2545 45.6424 14.3047 47.3946C15.0078 47.8055 15.8296 48.0002 16.7382 48.0002C19.7125 48.0002 23.6063 45.8803 27.5432 42.203C31.48 45.8588 35.3738 47.9571 38.3481 47.9571C39.2565 47.9571 40.0786 47.7624 40.7925 47.3513C43.8316 45.5991 44.5132 40.1371 42.9448 33.2801C49.6506 31.2142 54.031 27.8829 54.031 24.3785ZM39.949 17.1645C39.5487 18.5598 39.0512 19.9981 38.4887 21.4366C38.0453 20.5715 37.5803 19.7062 37.0719 18.8408C36.5744 17.9757 36.0443 17.132 35.5144 16.31C37.0501 16.5371 38.5319 16.8184 39.949 17.1645ZM34.9951 28.6832C34.1515 30.1435 33.2864 31.5279 32.3887 32.815C30.777 32.9555 29.144 33.0312 27.4999 33.0312C25.8667 33.0312 24.2334 32.9555 22.6329 32.8257C21.7351 31.5385 20.8589 30.1651 20.0153 28.7156C19.1932 27.2989 18.4471 25.8603 17.7656 24.4112C18.4362 22.9617 19.1932 21.5123 20.0047 20.0956C20.8482 18.6355 21.7133 17.251 22.6111 15.9639C24.2228 15.8233 25.8558 15.7476 27.4999 15.7476C29.1331 15.7476 30.7663 15.8233 32.3669 15.9531C33.2647 17.2402 34.1409 18.6137 34.9845 20.0632C35.8065 21.4799 36.5526 22.9185 37.2342 24.3679C36.5526 25.817 35.8065 27.2665 34.9951 28.6832ZM38.4887 27.2773C39.0564 28.6869 39.5546 30.1234 39.9814 31.5818C38.5644 31.9279 37.0719 32.2201 35.5252 32.4472C36.0551 31.6145 36.585 30.76 37.0828 29.8838C37.5803 29.0187 38.0453 28.1424 38.4887 27.2773ZM27.5214 38.8178C26.5155 37.7793 25.5097 36.622 24.5147 35.3566C25.4882 35.3999 26.4831 35.4323 27.489 35.4323C28.5057 35.4323 29.5116 35.4108 30.4959 35.3566C29.5675 36.5631 28.5746 37.7185 27.5214 38.8178ZM19.4745 32.4472C17.9388 32.2201 16.4569 31.9388 15.0402 31.5927C15.4402 30.1975 15.9379 28.7589 16.5002 27.3204C16.9438 28.1857 17.4089 29.0511 17.917 29.9162C18.4254 30.7815 18.9446 31.6251 19.4745 32.4472ZM27.4675 9.93953C28.4733 10.9778 29.4792 12.1351 30.4742 13.4006C29.5007 13.3573 28.5057 13.3249 27.4999 13.3249C26.4831 13.3249 25.4773 13.3465 24.4932 13.4006C25.4215 12.1941 26.4144 11.0388 27.4675 9.93953ZM19.4636 16.31C18.9337 17.1428 18.4038 17.9973 17.9063 18.8732C17.4089 19.7386 16.9438 20.6039 16.5002 21.469C15.9324 20.0595 15.4343 18.6229 15.0078 17.1645C16.4245 16.8292 17.917 16.5371 19.4636 16.31ZM9.67541 29.8514C5.84668 28.2182 3.36985 26.0768 3.36985 24.3785C3.36985 22.6805 5.84668 20.5282 9.67541 18.9059C10.6056 18.5056 11.6223 18.1487 12.6715 17.8134C13.2879 19.9333 14.0991 22.1397 15.105 24.4003C14.11 26.65 13.3095 28.8455 12.7039 30.9547C11.6332 30.6193 10.6165 30.2516 9.67541 29.8514ZM15.4944 45.3072C14.0234 44.4636 13.3852 41.2513 13.8829 37.1195C14.0019 36.103 14.1963 35.0321 14.4343 33.9396C16.5544 34.4589 18.8689 34.8592 21.3024 35.1187C22.7625 37.1195 24.2767 38.9365 25.8018 40.5265C22.2759 43.8038 18.9661 45.5991 16.7164 45.5991C16.2298 45.5884 15.8189 45.491 15.4944 45.3072ZM41.1495 37.0656C41.6576 41.1971 41.0305 44.4094 39.5702 45.2639C39.2459 45.4586 38.8241 45.5451 38.3264 45.5451C36.0875 45.5451 32.7672 43.7605 29.2412 40.5049C30.7554 38.915 32.2697 37.1089 33.7082 35.1078C36.1526 34.8483 38.4671 34.448 40.587 33.9181C40.8358 35.0106 41.0305 36.0597 41.1495 37.0656ZM45.3135 29.8514C44.3833 30.2516 43.3666 30.6086 42.3174 30.9438C41.7009 28.824 40.8898 26.6176 39.8839 24.357C40.8791 22.1073 41.6794 19.9118 42.285 17.8026C43.3559 18.1379 44.3724 18.5056 45.3244 18.9059C49.1531 20.5389 51.6299 22.6805 51.6299 24.3785C51.619 26.0768 49.1422 28.229 45.3135 29.8514Z" fill="#797D94"/>
<path d="M27.4896 29.3222C30.2196 29.3222 32.4326 27.1093 32.4326 24.3792C32.4326 21.6495 30.2196 19.4365 27.4896 19.4365C24.7598 19.4365 22.5469 21.6495 22.5469 24.3792C22.5469 27.1093 24.7598 29.3222 27.4896 29.3222Z" fill="#797D94"/>
</svg>
