<svg width="144" height="34" viewBox="0 0 144 34" fill="none" xmlns="http://www.w3.org/2000/svg">
<path fill-rule="evenodd" clip-rule="evenodd" d="M26.4684 16.9522C26.8031 16.8087 26.9466 16.4501 26.827 16.1153L23.3122 7.38819C23.1688 7.05345 22.8101 6.90999 22.4754 7.02954L20.2039 7.93812C19.8692 8.08158 19.7257 8.44023 19.8453 8.77497L23.3601 17.5021C23.5035 17.8369 23.8622 17.9803 24.1969 17.8608L26.4684 16.9522ZM21.4473 19.7496C21.6864 19.5105 21.6864 19.1041 21.4473 18.8411L12.9114 10.3052C12.6723 10.0661 12.2658 10.0661 12.0267 10.3052L10.2813 12.0506C10.0422 12.2897 10.0422 12.6962 10.2813 12.9592L18.8172 21.4951C19.0563 21.7342 19.4627 21.7342 19.7257 21.4951L21.4473 19.7496ZM17.8129 24.2447C17.9564 23.91 17.789 23.5513 17.4543 23.4079L8.72714 19.8931C8.3924 19.7736 8.03375 19.917 7.8903 20.2518L6.98172 22.5232C6.83826 22.8579 7.00563 23.2166 7.34037 23.3601L16.0675 26.8748C16.4023 26.9944 16.7609 26.8509 16.9044 26.5162L17.8129 24.2447ZM16.9761 0.0478229C26.3488 0.0478229 33.9522 7.6512 33.9522 17.0239C33.9522 26.3966 26.3488 34 16.9761 34C7.60337 34 0 26.3966 0 17.0239C0 7.6512 7.60337 0.0478229 16.9761 0.0478229ZM107.308 0C107.738 0 107.81 0.310833 107.738 0.645572L106.591 6.57525C106.543 6.90999 106.352 7.00563 106.041 7.00563H103.243C102.813 7.00563 102.741 6.6948 102.813 6.36006L103.961 0.43038C104.008 0.0956407 104.2 0 104.511 0H107.308ZM143.484 12.3376C143.484 12.6484 143.293 12.7918 142.958 12.7918H139.515C140.495 14.5134 140.806 16.3066 140.806 18.1955C140.806 24.5556 136.383 29.8636 130.166 29.8636C127.871 29.8636 125.097 28.7159 123.925 26.3488C122.515 28.1421 120.602 29.8636 117.565 29.8636C115.581 29.8636 113.405 29.218 112.305 27.2335C110.632 28.9072 108.575 29.8636 106.447 29.8636C100.087 29.8636 99.3938 24.5316 100.231 19.7736L101.187 14.1547C99.6568 14.9437 97.4093 14.9437 96.1899 14.6807C96.5007 15.8284 96.6202 16.9761 96.6202 18.0999C96.6202 24.2447 93.2011 29.8875 86.4346 29.8875C84.0675 29.8875 81.5091 28.7876 80.3375 26.3488C79.0703 28.5485 76.6315 29.8875 74.1688 29.8875C72.3038 29.8875 70.2475 28.8594 69.2194 26.8031C67.4979 29.0506 64.9156 29.8875 62.8115 29.8875C58.3882 29.8875 56.571 27.1378 56.571 22.9058C56.571 21.8059 56.7145 20.6104 56.9536 19.3193L58.7468 9.39662C58.7947 9.13361 58.9859 9.01407 59.2729 9.01407H62.4051C62.7876 9.01407 62.8354 9.3249 62.7876 9.54009L60.9705 19.4149C60.2053 23.5274 60.4683 25.9662 63.3615 25.9662C65.872 25.9662 67.7131 24.2447 68.3826 20.443L70.3671 9.39662C70.4149 9.13361 70.6062 9.01407 70.8931 9.01407H74.0253C74.4079 9.01407 74.4557 9.3249 74.4079 9.54009L72.5668 19.654C72.1125 22.045 71.7299 25.9423 74.6709 25.9423C76.775 25.9423 78.09 23.8383 78.9747 19.1519L82.3938 0.406473C82.4416 0.143463 82.6807 0.0239114 82.9198 0.0239114H86.052C86.2672 0.0239114 86.5063 0.215191 86.4346 0.54993L84.6653 10.353C86.2194 9.46835 88.0126 8.94234 89.7342 8.94234C91.2883 8.94234 92.3643 9.39663 93.4402 9.89874C97.0028 11.6681 100.398 10.6878 101.88 9.30099C102.072 9.10971 102.263 9.01407 102.526 9.01407C102.598 9.01407 105.61 9.01407 105.61 9.01407C106.113 9.01407 106.184 9.34881 106.113 9.73137L104.224 19.7975C103.65 22.571 103.698 25.9423 106.662 25.9423C109.149 25.9423 110.775 23.4318 111.54 19.4149L112.807 13.007H109.269C108.886 13.007 108.647 12.8158 108.647 12.481V9.5879C108.647 9.20535 108.838 9.01407 109.173 9.01407H113.572L115.222 0.43038C115.27 0.0956407 115.461 0 115.772 0H118.833C119.263 0 119.335 0.310833 119.263 0.645572L117.637 9.01407H122.347C122.682 9.01407 122.873 9.20535 122.873 9.54009V12.5049C122.873 12.8158 122.682 13.007 122.371 13.007H116.848L115.509 19.7975C115.055 22.1646 114.744 25.9423 117.685 25.9423C120.961 25.9423 122.108 22.6667 122.61 19.128C123.591 12.1224 127.799 8.87061 133.466 8.87061H142.934C143.269 8.87061 143.46 9.06188 143.46 9.39662V12.3376H143.484ZM92.4599 18.2433C92.4599 14.5134 90.6667 12.8397 88.6343 12.8397C85.8847 12.8397 82.872 15.7328 82.872 20.5865C82.872 23.5274 84.1392 25.9662 86.7693 25.9662C89.7342 25.9423 92.4599 22.9775 92.4599 18.2433ZM136.646 18.2433C136.646 14.5134 134.781 12.8397 132.653 12.8397C129.783 12.8397 126.627 15.7328 126.627 20.5865C126.627 23.5274 127.966 25.9662 130.716 25.9662C133.776 25.9423 136.646 22.9775 136.646 18.2433ZM55.8059 11.7159L54.3713 13.9634C54.18 14.2264 53.917 14.2743 53.6779 14.1069C52.4107 13.3896 50.9044 12.3854 48.6568 12.3854C46.5527 12.3854 45.1181 13.0788 45.1181 14.3938C45.1181 15.6132 45.5485 15.9958 49.0872 17.4782C52.8889 19.0802 54.73 20.4909 54.73 23.8861C54.73 28.3811 51.0239 29.8397 47.0309 29.8397C45.3572 29.8397 41.9142 29.6484 39.2124 26.5162L38.4233 25.6076C38.3038 25.4402 38.2321 25.3446 38.2321 25.1772C38.2321 25.0338 38.3038 24.8664 38.4233 24.7468L40.5992 22.834C40.7187 22.7384 40.8383 22.6906 40.9817 22.6906C41.1013 22.6906 41.2447 22.7145 41.3643 22.8819C43.0858 24.9142 44.8312 25.9423 47.0549 25.9423C49.4937 25.9423 50.5696 25.2968 50.5696 23.8861C50.5696 22.8101 50.1153 22.2841 47.2461 21.0647C42.9662 19.2714 41.0774 17.9325 41.0774 14.3938C41.0774 10.8551 44.0422 8.41632 48.7764 8.41632C51.0956 8.41632 53.5105 9.18144 55.7103 10.7356C55.9255 10.879 56.0211 11.0703 56.0211 11.2377C55.9494 11.4051 55.8776 11.5724 55.8059 11.7159Z" fill="white"/>
</svg>
