<svg width="48" height="48" viewBox="0 0 48 48" fill="none" xmlns="http://www.w3.org/2000/svg">
<g clip-path="url(#clip0_98_74304)">
<path d="M47.5 24C47.5 36.9787 36.9787 47.5 24 47.5C11.0213 47.5 0.5 36.9787 0.5 24C0.5 11.0213 11.0213 0.5 24 0.5C36.9787 0.5 47.5 11.0213 47.5 24Z" fill="url(#paint0_linear_98_74304)" fill-opacity="0.12" stroke="url(#paint1_linear_98_74304)"/>
<mask id="mask0_98_74304" style="mask-type:luminance" maskUnits="userSpaceOnUse" x="13" y="12" width="21" height="24">
<path d="M33.5385 12.9231H13.8462V35.0769H33.5385V12.9231Z" fill="white"/>
</mask>
<g mask="url(#mask0_98_74304)">
<path d="M23.8099 26.6504C25.3352 26.6504 26.5718 25.4407 26.5718 23.9484C26.5718 22.4561 25.3352 21.2463 23.8099 21.2463C22.2846 21.2463 21.0481 22.4561 21.0481 23.9484C21.0481 25.4407 22.2846 26.6504 23.8099 26.6504Z" fill="#49E8AB"/>
<path d="M33.7586 12.9241H13.8462V15.35H33.7586V12.9241Z" fill="white"/>
<path d="M33.7586 32.6515H13.8462V35.0775H33.7586V32.6515Z" fill="white"/>
</g>
</g>
<defs>
<linearGradient id="paint0_linear_98_74304" x1="-3.22381e-08" y1="24" x2="48" y2="24" gradientUnits="userSpaceOnUse">
<stop stop-color="#222222"/>
<stop offset="1" stop-color="#222222"/>
</linearGradient>
<linearGradient id="paint1_linear_98_74304" x1="-3.46022e-08" y1="24" x2="48" y2="27.2308" gradientUnits="userSpaceOnUse">
<stop stop-color="#3D3D3D"/>
<stop offset="1" stop-color="#292929" stop-opacity="0.5"/>
</linearGradient>
<clipPath id="clip0_98_74304">
<rect width="48" height="48" fill="white"/>
</clipPath>
</defs>
</svg>
