<svg fill="none" height="793" viewBox="0 0 1004 793" width="1004" xmlns="http://www.w3.org/2000/svg" xmlns:xlink="http://www.w3.org/1999/xlink"><filter id="a" color-interpolation-filters="sRGB" filterUnits="userSpaceOnUse" height="946" width="1288" x="-143" y="-56"><feFlood flood-opacity="0" result="BackgroundImageFix"/><feBlend in="SourceGraphic" in2="BackgroundImageFix" mode="normal" result="shape"/><feGaussianBlur result="effect1_foregroundBlur_624_13159" stdDeviation="200"/></filter><linearGradient id="b"><stop offset="0" stop-color="#78e7c5"/><stop offset=".442708" stop-color="#70ffb8"/><stop offset="1" stop-color="#9dffad"/></linearGradient><linearGradient id="c" gradientUnits="userSpaceOnUse" x1="727" x2="721.459" xlink:href="#b" y1="412.272" y2="316.991"/><linearGradient id="d" gradientUnits="userSpaceOnUse" x1="668.5" x2="640.697" xlink:href="#b" y1="393.738" y2="210.683"/><linearGradient id="e" gradientUnits="userSpaceOnUse" x1="407.951" x2="395.331" xlink:href="#b" y1="258.323" y2="175.78"/><linearGradient id="f" gradientUnits="userSpaceOnUse" x1="747.951" x2="735.331" xlink:href="#b" y1="527.323" y2="444.78"/><linearGradient id="g" gradientUnits="userSpaceOnUse" x1="575.914" x2="563.367" xlink:href="#b" y1="399.323" y2="316.758"/><clipPath id="h"><path d="m0 0h1004v793h-1004z"/></clipPath><g clip-path="url(#h)"><g filter="url(#a)" opacity=".5"><path d="m745 417s-109.243 73-244 73-244-73-244-73 109.243-73 244-73 244 73 244 73z" fill="url(#c)"/><path d="m744.088 417c-.171.112-.378.245-.618.399-.83.533-2.067 1.315-3.689 2.312-3.244 1.992-8.032 4.84-14.198 8.258-12.333 6.836-30.183 15.952-52.24 25.069-44.118 18.235-105.051 36.462-172.343 36.462s-128.225-18.227-172.343-36.462c-22.057-9.117-39.907-18.233-52.24-25.069-6.166-3.418-10.954-6.266-14.198-8.258-1.622-.997-2.859-1.779-3.689-2.312-.24-.154-.447-.287-.618-.399.171-.112.378-.245.618-.399.83-.533 2.067-1.315 3.689-2.312 3.244-1.992 8.032-4.84 14.198-8.258 12.333-6.836 30.183-15.952 52.24-25.069 44.118-18.235 105.051-36.462 172.343-36.462s128.225 18.227 172.343 36.462c22.057 9.117 39.907 18.233 52.24 25.069 6.166 3.418 10.954 6.266 14.198 8.258 1.622.997 2.859 1.779 3.689 2.312.24.154.447.287.618.399z" stroke="#000"/></g><rect height="285" opacity=".1" rx="23.5" stroke="url(#d)" width="365" x="316.5" y="260.5"/><rect height="128" opacity=".3" rx="15.5" stroke="url(#e)" width="163" x="250.5" y="198.5"/><rect height="128" opacity=".3" rx="15.5" stroke="url(#f)" width="163" x="590.5" y="467.5"/><rect height="128" opacity=".8" rx="15.5" stroke="url(#g)" width="164" x="417.5" y="339.5"/></g></svg>